<svg width="512" height="512" viewBox="0 0 512 512" fill="none" xmlns="http://www.w3.org/2000/svg">
<g clip-path="url(#clip0_16_3844)">
<path d="M15.9442 79.8734C0 111.166 0 152.129 0 234.057V277.943C0 359.871 0 400.834 15.9442 432.127C29.9691 459.652 52.348 482.031 79.8734 496.056C111.166 512 152.129 512 234.057 512H277.943C359.871 512 400.834 512 432.127 496.056C459.652 482.031 482.031 459.652 496.056 432.127C512 400.834 512 359.871 512 277.943V234.057C512 152.129 512 111.166 496.056 79.8734C482.031 52.348 459.652 29.9691 432.127 15.9442C400.834 0 359.871 0 277.943 0H234.057C152.129 0 111.166 0 79.8734 15.9442C52.348 29.9691 29.9691 52.348 15.9442 79.8734Z" fill="#E7BEA2" style="fill:#E7BEA2;fill:color(display-p3 0.9059 0.7451 0.6353);fill-opacity:1;"/>
<path d="M372 510.18C349.544 511.868 321.833 511.991 286 512V414.4C286 400.924 297.001 390 310.571 390H347.429C360.999 390 372 400.924 372 414.4V510.18Z" fill="#EA4448" style="fill:#EA4448;fill:color(display-p3 0.9176 0.2667 0.2824);fill-opacity:1;"/>
<path d="M512 256H0V234.057C0 152.129 0 111.166 15.9442 79.8734C29.9691 52.348 52.348 29.9691 79.8734 15.9442C111.166 0 152.129 0 234.057 0H277.943C359.871 0 400.834 0 432.127 15.9442C459.652 29.9691 482.031 52.348 496.056 79.8734C512 111.166 512 152.129 512 234.057V256Z" fill="#97405C" style="fill:#97405C;fill:color(display-p3 0.5922 0.2510 0.3608);fill-opacity:1;"/>
<path d="M402.331 5.83557C374.194 0 336.549 0 277.943 0H234.057C175.451 0 137.806 0 109.669 5.83557L165.908 116.733C168.165 121.184 174.523 121.184 176.78 116.733L198.734 73.4412C201.164 68.6506 208.154 69.1169 209.925 74.1878L228.214 126.547C229.992 131.634 237.014 132.081 239.422 127.26L250.547 104.985C252.792 100.489 259.208 100.489 261.453 104.985L272.578 127.26C274.986 132.081 282.008 131.634 283.786 126.547L302.075 74.1878C303.846 69.1169 310.836 68.6506 313.266 73.4412L335.22 116.733C337.477 121.184 343.835 121.184 346.092 116.733L402.331 5.83557Z" fill="#48215B" style="fill:#48215B;fill:color(display-p3 0.2824 0.1294 0.3569);fill-opacity:1;"/>
<path d="M22.7488 444C20.3027 440.143 18.031 436.162 15.9442 432.067C0 400.779 0 359.821 0 277.905V256.848L105.792 313.569C110.078 315.868 110.078 322.013 105.792 324.311L55.7317 351.152C51.4454 353.45 51.4454 359.595 55.7317 361.894L105.792 388.734C110.078 391.032 110.078 397.177 105.792 399.476L22.7488 444Z" fill="#48215B" style="fill:#48215B;fill:color(display-p3 0.2824 0.1294 0.3569);fill-opacity:1;"/>
<path d="M512 256.848V277.905C512 359.821 512 400.779 496.056 432.067C493.969 436.162 491.697 440.143 489.251 444L406.208 399.476C401.922 397.177 401.922 391.032 406.208 388.734L456.268 361.894C460.555 359.595 460.555 353.45 456.268 351.152L406.208 324.311C401.922 322.013 401.922 315.868 406.208 313.569L512 256.848Z" fill="#48215B" style="fill:#48215B;fill:color(display-p3 0.2824 0.1294 0.3569);fill-opacity:1;"/>
<path d="M109.429 146C95.937 146 85 156.908 85 170.364V188.636C85 202.092 95.937 213 109.429 213H194.929C208.42 213 219.357 202.092 219.357 188.636V170.364C219.357 156.908 208.42 146 194.929 146H109.429Z" fill="#FAD87F" style="fill:#FAD87F;fill:color(display-p3 0.9804 0.8471 0.4980);fill-opacity:1;"/>
<path d="M317.071 146C303.58 146 292.643 156.908 292.643 170.364V188.636C292.643 202.092 303.58 213 317.071 213H402.571C416.063 213 427 202.092 427 188.636V170.364C427 156.908 416.063 146 402.571 146H317.071Z" fill="#FAD87F" style="fill:#FAD87F;fill:color(display-p3 0.9804 0.8471 0.4980);fill-opacity:1;"/>
</g>
<defs>
<clipPath id="clip0_16_3844">
<rect width="512" height="512" fill="white" style="fill:white;fill-opacity:1;"/>
</clipPath>
</defs>
</svg>
