<svg width="512" height="512" viewBox="0 0 512 512" fill="none" xmlns="http://www.w3.org/2000/svg">
<path d="M54.3531 108.054C40.96 134.339 40.96 168.749 40.96 237.568V274.432C40.96 343.251 40.96 377.661 54.3531 403.946C66.134 427.068 84.9322 445.866 108.054 457.647C134.339 471.04 168.749 471.04 237.568 471.04H274.432C343.251 471.04 377.661 471.04 403.946 457.647C427.068 445.866 445.866 427.068 457.647 403.946C471.04 377.661 471.04 343.251 471.04 274.432V237.568C471.04 168.749 471.04 134.339 457.647 108.054C445.866 84.9322 427.068 66.134 403.946 54.3531C377.661 40.96 343.251 40.96 274.432 40.96H237.568C168.749 40.96 134.339 40.96 108.054 54.3531C84.9322 66.134 66.134 84.9322 54.3531 108.054Z" fill="#E7BEA2" style="fill:#E7BEA2;fill:color(display-p3 0.9059 0.7451 0.6353);fill-opacity:1;"/>
<path d="M353.28 469.512C334.563 470.929 311.466 471.032 281.6 471.04V389.12C281.6 377.809 290.769 368.64 302.08 368.64H332.8C344.111 368.64 353.28 377.809 353.28 389.12V469.512Z" fill="#EA4448" style="fill:#EA4448;fill:color(display-p3 0.9176 0.2667 0.2824);fill-opacity:1;"/>
<path d="M471.04 256H40.96V237.568C40.96 168.749 40.96 134.339 54.3531 108.054C66.134 84.9322 84.9322 66.134 108.054 54.3531C134.339 40.96 168.749 40.96 237.568 40.96H274.432C343.251 40.96 377.661 40.96 403.946 54.3531C427.068 66.134 445.866 84.9322 457.647 108.054C471.04 134.339 471.04 168.749 471.04 237.568V256Z" fill="#97405C" style="fill:#97405C;fill:color(display-p3 0.5922 0.2510 0.3608);fill-opacity:1;"/>
<path d="M378.918 45.8625C355.283 40.96 323.661 40.96 274.432 40.96H237.568C188.339 40.96 156.717 40.96 133.082 45.8625L180.322 139.029C182.218 142.768 187.559 142.768 189.455 139.029L207.897 102.659C209.938 98.6343 215.809 99.0261 217.297 103.286L232.66 147.274C234.153 151.548 240.052 151.924 242.074 147.873L251.419 129.159C253.305 125.382 258.695 125.382 260.581 129.159L269.926 147.873C271.948 151.924 277.847 151.548 279.34 147.274L294.703 103.286C296.191 99.0261 302.062 98.6343 304.103 102.659L322.545 139.029C324.441 142.768 329.781 142.768 331.678 139.029L378.918 45.8625Z" fill="#48215B" style="fill:#48215B;fill:color(display-p3 0.2824 0.1294 0.3569);fill-opacity:1;"/>
<path d="M60.069 413.971C58.0142 410.731 56.106 407.387 54.3531 403.946C40.96 377.661 40.96 343.251 40.96 274.432V256.742L129.825 304.394C133.426 306.325 133.426 311.488 129.825 313.419L87.7746 335.968C84.1741 337.898 84.1741 343.061 87.7746 344.992L129.825 367.541C133.426 369.472 133.426 374.635 129.825 376.566L60.069 413.971Z" fill="#48215B" style="fill:#48215B;fill:color(display-p3 0.2824 0.1294 0.3569);fill-opacity:1;"/>
<path d="M471.04 256.742V274.432C471.04 343.251 471.04 377.661 457.647 403.946C455.894 407.387 453.986 410.731 451.931 413.971L382.175 376.566C378.574 374.635 378.574 369.472 382.175 367.541L424.225 344.992C427.826 343.061 427.826 337.898 424.225 335.968L382.175 313.419C378.574 311.488 378.574 306.325 382.175 304.394L471.04 256.742Z" fill="#48215B" style="fill:#48215B;fill:color(display-p3 0.2824 0.1294 0.3569);fill-opacity:1;"/>
<path d="M133.12 163.84C121.809 163.84 112.64 173.009 112.64 184.32V199.68C112.64 210.991 121.809 220.16 133.12 220.16H204.8C216.111 220.16 225.28 210.991 225.28 199.68V184.32C225.28 173.009 216.111 163.84 204.8 163.84H133.12Z" fill="#FAD87F" style="fill:#FAD87F;fill:color(display-p3 0.9804 0.8471 0.4980);fill-opacity:1;"/>
<path d="M307.2 163.84C295.889 163.84 286.72 173.009 286.72 184.32V199.68C286.72 210.991 295.889 220.16 307.2 220.16H378.88C390.191 220.16 399.36 210.991 399.36 199.68V184.32C399.36 173.009 390.191 163.84 378.88 163.84H307.2Z" fill="#FAD87F" style="fill:#FAD87F;fill:color(display-p3 0.9804 0.8471 0.4980);fill-opacity:1;"/>
</svg>
