<svg width="512" height="512" viewBox="0 0 512 512" fill="none" xmlns="http://www.w3.org/2000/svg">
<g clip-path="url(#clip0_186_157)">
<rect width="512" height="512" rx="128" fill="#97405C" style="fill:#97405C;fill:color(display-p3 0.5922 0.2510 0.3608);fill-opacity:1;"/>
<path d="M256 256C349.254 256 436.684 280.932 511.99 324.492C511.9 384.838 510.83 417.025 498.049 442.11C485.777 466.195 466.195 485.777 442.11 498.049C414.73 512 378.886 512 307.2 512H204.8C133.114 512 97.2703 512 69.8896 498.049C45.8049 485.777 26.223 466.195 13.9512 442.11C1.16993 417.025 0.0986447 384.838 0.00878906 324.492C75.3153 280.932 162.746 256 256 256Z" fill="#E7BEA2" style="fill:#E7BEA2;fill:color(display-p3 0.9059 0.7451 0.6353);fill-opacity:1;"/>
<path d="M104.464 310.547C109.89 313.38 109.89 320.957 104.464 323.79L41.0908 356.879C35.6649 359.712 35.6649 367.289 41.0908 370.122L104.464 403.212C109.89 406.045 109.89 413.623 104.464 416.456L23.9219 458.509C20.2095 453.323 16.8728 447.844 13.9512 442.11C0.000193596 414.73 0 378.886 0 307.2V256.001L104.464 310.547Z" fill="#48215B" style="fill:#48215B;fill:color(display-p3 0.2824 0.1294 0.3569);fill-opacity:1;"/>
<path d="M512 307.2C512 378.886 512 414.73 498.049 442.11C495.127 447.845 491.79 453.323 488.077 458.509L407.536 416.456C402.11 413.623 402.11 406.045 407.536 403.212L470.909 370.122C476.335 367.289 476.335 359.712 470.909 356.879L407.536 323.79C402.11 320.957 402.11 313.38 407.536 310.547L512 256V307.2Z" fill="#48215B" style="fill:#48215B;fill:color(display-p3 0.2824 0.1294 0.3569);fill-opacity:1;"/>
<path d="M307.2 0C364.492 0 398.89 0.00141478 424.371 7.12305L367.437 118.886C364.644 124.366 356.78 124.366 353.988 118.886L326.833 65.5791C323.828 59.6808 315.182 60.2557 312.991 66.499L290.369 130.97C288.171 137.234 279.485 137.785 276.506 131.849L262.744 104.42C259.967 98.8847 252.032 98.8845 249.255 104.42L235.494 131.849C232.515 137.785 223.829 137.234 221.631 130.97L199.009 66.499C196.818 60.2557 188.172 59.6809 185.167 65.5791L158.012 118.886C155.22 124.366 147.356 124.366 144.563 118.886L87.6279 7.12305C113.109 0.00116205 147.507 0 204.8 0H307.2Z" fill="#48215B" style="fill:#48215B;fill:color(display-p3 0.2824 0.1294 0.3569);fill-opacity:1;"/>
<path d="M84 195C84 172.909 101.909 155 124 155H164C186.091 155 204 172.909 204 195C204 217.091 186.091 235 164 235H124C101.909 235 84 217.091 84 195Z" fill="#FAD87F" style="fill:#FAD87F;fill:color(display-p3 0.9804 0.8471 0.4980);fill-opacity:1;"/>
<path d="M308 195C308 172.909 325.909 155 348 155H388C410.091 155 428 172.909 428 195C428 217.091 410.091 235 388 235H348C325.909 235 308 217.091 308 195Z" fill="#FAD87F" style="fill:#FAD87F;fill:color(display-p3 0.9804 0.8471 0.4980);fill-opacity:1;"/>
<path d="M254.685 431.842C254.866 431.937 254.65 432.593 254.77 432.805C253.143 432.937 254.023 431.482 254.685 431.842ZM373.887 425.877C373.453 425.793 373.02 425.711 372.587 425.629C372.474 426.215 372.943 426.849 372.709 427.44C372.669 427.537 371.499 427.621 371.5 427.825C371.501 428.03 373.014 427.591 373.25 427.827C373.507 428.079 372.817 429.759 372.974 430.248C373.564 432.057 374.925 433.676 374.776 435.658C373.151 434.086 372.508 436.274 373.138 436.677C373.282 436.765 376.105 435.989 375.903 438.088C375.771 439.404 371.43 439.373 373.995 440.846C376.408 438.538 376.616 440.108 377.041 441.315C377.112 441.515 377.137 443.304 377.466 444.024C377.578 444.27 379.165 444.264 379.296 444.596C379.384 444.822 378.621 445.212 378.755 445.545C379.368 447.091 379.868 448.693 380.027 450.363C375.968 450.451 378.607 451.543 378.446 451.67C377.518 452.336 376.751 450.671 376.292 451.536C376.67 452.463 377.057 453.421 377.431 454.334C377.685 453.422 380.916 454.503 379.765 455.183C381.174 454.731 381.074 455.598 380.598 456.787C379.849 458.027 378.392 459.729 379.12 459.834C379.386 459.864 380.841 458.728 380.541 460.474C380.506 460.663 379.482 460.905 379.602 460.963C379.674 460.998 382.963 460.338 381.301 461.208C380.696 461.525 378.358 461.412 379.733 462.838C382.757 461.153 382.224 464.55 381.613 465.346C382.008 465.091 382.403 464.837 382.798 464.584C381.814 465.503 382.937 465.211 382.917 465.345C382.844 465.896 381.979 466.924 382.236 467.309C382.538 467.767 384.514 467.017 383.959 467.866C384.344 467.567 384.729 467.268 385.114 466.971C385.155 467.393 385.196 467.808 385.241 468.227C382.291 468.371 385.194 468.472 385.275 468.51C385.414 468.582 384.287 468.85 384.494 468.982C384.523 468.992 385.513 468.564 385.738 468.796C386.207 469.283 384.918 469.711 385.034 469.951C385.049 469.969 385.914 469.521 386.3 469.843C387.529 470.855 385.611 470.131 385.466 470.129C385.273 470.125 381.732 472.189 382.567 470.445C382.308 471.019 380.667 471.752 380.645 471.815C380.629 471.873 381.153 472.462 381.228 472.477C381.935 472.575 382.933 471.79 383.164 471.769C383.347 471.749 382.24 473.21 385.691 471.875C382.752 473.644 382.771 472.934 382.006 472.486C381.322 472.668 381.017 473.666 381.036 473.702C381.458 474.627 383.78 472.957 385.5 472.413C386.398 472.125 384.819 473.267 386.957 471.9C387.548 472.55 386.015 472.701 385.841 472.841C385.589 473.049 386.367 473.013 386.296 473.088C386.191 473.198 385.322 473.394 385.138 473.723C385.114 473.777 386.613 473.445 387.071 472.74C387.132 473.365 388.259 472.76 386.029 474.058C390.58 472.288 383.571 475.583 383.402 475.856C382.955 476.576 386.319 474.756 386.496 474.694C387.63 474.298 386.981 475.914 387.601 475.903C385.114 477.09 387.154 475.11 386.602 475.199C384.741 475.459 385.767 476.59 382.49 477.776C383.424 477.515 384.354 477.246 385.281 476.967C383.473 478.306 382.384 478.325 383.548 478.778C385.31 478.003 382.966 478.333 384.378 477.767C385.207 477.438 385.625 477.813 386.04 477.597C386.54 477.339 385.729 477.239 386.528 476.896C388.246 476.155 387.497 478.476 385.981 477.841C386.179 478.136 383.03 480.12 384.201 479.84C384.95 479.634 388.881 476.168 388.875 478.053C387.374 478.965 388.096 477.738 387.973 477.79C387.79 477.862 384.408 479.928 384.251 480.047C383.734 480.451 386.465 480.915 384.968 482.265C386.835 480.938 386.029 483.193 386.714 482.957C386.898 482.888 387.988 481.992 388.138 481.949C389.026 481.699 387.358 483.713 387.516 484.059C387.684 484.436 388.654 483.707 388.664 483.727C388.71 483.912 387.953 484.261 388.017 484.35C388.111 484.484 388.64 485.519 388.816 485.467C388.869 485.448 389.882 484.489 390.239 484.534C390.302 484.542 388.953 485.482 389.972 485.669C391.189 485.877 391.243 483.958 392.848 483.238C391.21 485.138 393.149 483.681 393.084 483.912C393.059 483.993 391.655 485.555 392.033 485.83C391.574 485.783 391.114 485.732 390.656 485.679C390.555 486.148 391.282 486.362 391.124 486.822C391.048 487.047 389.645 488.001 389.86 488.202C389.914 488.24 393.301 485.879 391.394 486.441C392.522 485.493 391.976 486.354 392.405 486.224C392.472 486.205 394.462 484.757 393.388 485.863C393.127 486.137 387.147 490.157 392.123 488.057C392.283 487.988 392.879 487.296 393.053 487.214C393.17 487.159 393.12 487.674 393.246 487.627C393.379 487.572 394.025 486.813 394.207 486.73C395.134 486.293 392.348 489.032 392.233 488.424C391.975 488.868 391.72 489.315 391.468 489.765C393.603 487.745 392.284 489.458 392.524 489.603C394.05 490.516 394.775 488.418 395.713 487.998C397.217 487.319 393.171 490.312 394.777 489.866C394.931 489.826 395.966 487.773 396.173 489.839C395.943 489.703 395.714 489.567 395.49 489.435C393.439 491.402 396.237 489.996 396.304 490.011C397.051 490.267 395.974 490.596 397.761 490.402C397.802 490.398 397.807 490.435 397.799 490.491L395.08 487.672C395.043 487.812 394.893 488.115 395.144 487.996C395.935 487.618 395.851 487.305 395.779 486.949L398.547 489.819C398.429 489.456 398.32 489.068 398.676 488.722C398.841 488.562 399.144 488.733 399.442 489.014L396.616 486.083C396.924 486.314 397.177 486.706 397.088 486.839C396.418 487.836 396.302 486.817 395.398 487.985C395.095 488.428 397.175 488.876 397.052 489.512C396.919 490.274 394.605 493.351 397.376 490.035C394.747 493.366 396.683 491.212 396.701 491.265C396.94 491.968 396.922 492.006 397.59 492.014C397.736 492.015 397.031 493.097 397.197 492.95C397.296 492.861 398.099 491.741 398.448 491.473C398.921 491.107 398.841 492.806 398.469 493.473C398.087 494.137 397.935 493.495 397.271 494.56C397.498 494.881 397.965 494.832 398.194 495.15C398.288 495.285 397.728 495.964 397.775 496.016C397.793 496.043 398.673 495.705 398.83 495.42C399.195 494.77 397.586 494.265 398.821 493.256C399.053 493.058 398.132 494.877 399.498 492.836C400.304 494.076 401.207 495.294 402.248 496.5C400.595 497.689 400.565 495.765 399.753 495.452C399.639 495.405 399.431 494.988 398.793 496.053C399.262 496.744 400.404 496.684 400.655 497.757C400.664 497.793 400.031 498.715 400.024 498.915C400.017 499.292 401.388 497.997 401.243 498.446C401.207 498.551 400.212 499.68 399.847 500.546C398.926 502.776 401.533 498.149 401.686 498.303C401.786 498.419 401.652 501.241 402.647 499.92C403.683 498.505 402.34 498.643 403.066 497.424C404.363 496.494 404.366 498.18 405.118 498.328C405.131 498.329 405.491 497.276 405.7 497.2C405.982 497.098 405.698 497.959 405.572 498.483C405.535 498.633 405.511 498.756 405.516 498.819C405.538 499.123 406.135 499.135 405.984 499.692C405.965 499.765 405.248 501.154 405.213 501.187C404.726 501.677 405.449 499.786 405.441 499.754C405.396 499.651 405.013 500.329 404.963 500.257C404.922 500.195 404.963 499.985 404.997 499.78C405.028 499.584 405.052 499.392 404.993 499.332C404.911 499.245 404.445 500.544 404.372 500.442C404.34 500.397 405.276 497.369 403.895 500.265C403.76 500.549 403.918 501 404.246 501.472C404.9 502.496 406.735 503.699 407.233 503.287C407.017 502.791 406.814 502.298 406.629 501.809C406.957 502.952 408.735 500.882 407.469 504.457C410.142 505.788 413.342 507.157 416.837 508.512C417.386 509.011 416.344 511.246 417.621 510.878C417.559 510.052 417.497 509.225 417.442 508.4C417.819 509.082 420.007 510.812 420.562 510.442C420.634 510.393 421.297 508.289 421.979 508.281C422.584 508.274 422.238 509.893 422.459 510.282C422.646 510.603 423.05 510.264 423.101 510.373C423.141 510.459 422.899 511.441 422.995 511.649C423.301 512.296 423.678 509.451 423.274 512.726C423.132 512.817 422.991 512.908 422.85 512.999C423.268 513.602 423.638 515.236 422.638 515.726C422.466 515.81 422.84 514.898 422.736 514.872C418.676 513.956 421.365 516.662 423.194 515.579C423.182 517.077 425.493 516.772 425.493 517.066C425.486 517.492 424.832 518.517 425.051 519.608C425.091 519.839 428.146 519.791 426.637 521.39C426.324 521.72 425.062 520.961 424.723 520.931C424.716 524.103 427.65 520.317 427.825 520.478C428.538 521.155 425.564 522.644 427.351 523.472C428.734 524.108 427.88 521.774 428.654 521.069C429.085 520.672 430.181 523.281 430.855 520.434C431.499 520.275 430.787 521.692 430.83 521.818C430.874 521.93 432.211 521.365 432.427 522.055C432.453 522.141 431.941 523.58 431.957 523.712C431.994 523.941 433.161 523.921 433.236 523.807C433.286 523.727 433.349 522.371 433.535 522.085C433.75 521.755 434.729 522.323 434.881 521.969C435.102 521.432 433.707 521.472 434.287 520.083C434.794 520.597 436.017 519.879 436.707 518.817C436.526 519.125 435.929 519.026 435.756 518.858C436.38 516.768 437.63 517.111 436.781 518.677C437.28 517.847 437.212 517.323 437.579 516.513C437.673 516.309 438.073 516.362 438.24 516.014C438.268 515.944 438.066 515.046 438.254 514.636C438.592 513.896 439.733 514.367 439.781 514.595C439.911 515.241 438.767 515.697 438.464 516.569C438.418 516.703 438.804 518.657 438.778 518.814C438.412 520.482 437.794 519.06 437.526 520.577C437.674 520.949 437.822 521.321 437.97 521.692C436.715 522.983 435.304 521.805 434.463 523.42C435.871 523.229 437.213 523.629 436.243 527.497C435.835 529.126 435.037 529.941 434.955 530.361C434.667 531.864 435.846 530.448 435.856 530.533C435.857 530.629 435.845 530.72 435.824 530.806C435.824 530.806 435.824 530.806 435.824 530.806C435.606 531.674 434.343 532.022 434.19 532.404C433.921 533.085 433.688 536.105 433.527 536.746C433.477 536.87 432.519 537.359 432.505 538.544C432.491 539.741 433.175 539.938 433.17 540.062C433.132 540.77 431.772 541.085 431.636 541.475C431.567 541.672 431.904 543.074 431.834 543.435C431.761 543.796 431.073 544.454 430.597 545.534C430.243 546.336 430.503 547.085 430.396 547.198C430.322 547.272 429.186 546.972 429.093 547.106C428.955 547.303 428.971 548.372 428.87 548.613C428.724 548.959 428.447 548.505 428.402 548.888C428.368 549.173 428.931 552.985 428.691 553.906C428.282 555.476 427.674 551.476 427.528 558.039C427.528 558.083 427.981 557.727 427.981 557.768C427.907 558.963 426.368 560.447 427.789 560.475C424.792 561.835 426.886 562.764 425.853 565.322C425.456 566.305 424.379 566.482 424.337 566.633C424.107 567.949 424.668 567.025 424.614 567.685C424.584 568.053 423.372 569.202 423.346 570.138C423.332 570.621 424.297 570.689 424.312 570.788C424.467 571.72 423.793 572.514 423.723 573.132C423.676 573.546 424.225 573.717 424.221 573.792C424.207 573.948 423.047 575.378 422.747 575.908C422.517 576.315 422.796 577.114 422.664 577.284C421.875 578.299 421.529 575.119 421.543 579.457C421.544 579.723 421.96 579.72 421.959 579.773C421.912 580.989 421.166 580.909 420.8 581.823C420.171 583.399 421.435 582.749 420.286 583.68C420.666 584.909 421.037 584.954 421.865 584.845C419.57 585.153 417.768 589.188 420.121 589.664C419.4 589.414 418.885 591.817 418.653 591.804C418.51 591.793 418.027 589.154 417.19 594.593C417.086 595.273 417.951 594.593 417.406 595.901C415.922 595.161 417.156 596.757 417.113 596.937C416.316 600.066 413.091 596.531 412.321 596.715C411.436 596.932 410.111 599.22 409.939 599.179C409.374 599.037 410.161 597.904 410.152 597.412C410.143 596.924 407.92 598.91 407.871 598.757C407.693 598.148 408.392 596.747 408.378 596.664C408.228 595.658 405.746 596.254 405.216 595.747C404.984 596.712 406.201 597.111 405.027 598.453C403.655 600.016 404.711 595.768 404.737 595.576C400.598 594.533 396.344 593.418 391.938 592.157C391.337 594.411 394.694 593.558 394.666 593.866C394.563 595.732 389.703 594.278 389.32 593.291C389.635 593.912 389.949 594.532 390.263 595.151C388.712 597.482 387.964 593.62 386.459 594.385C385.97 594.633 386.38 595.845 386.345 595.907C385.613 596.768 385.17 595.788 386.099 594.618C384.66 595.566 385.255 594.206 384.495 593.845C384.454 593.827 384.47 594.968 383.694 595.188C383.332 595.292 381.728 594.768 381.208 595.588C380.988 595.935 380.501 600.188 381.735 596.798C382.944 599.044 382.806 595.42 383.457 595.719C383.553 595.769 382.705 597.615 384.686 597.252C383.269 600.612 382.114 597.387 381.641 597.692C380.649 598.319 382.987 601.054 384.358 598.515C383.256 601.137 384.451 598.946 385.044 599.253C385.696 599.589 385.145 600.301 385.518 600.421C386.536 600.758 386.694 598.715 387.003 600.694C387.822 595.111 388.629 600.418 388.865 602.01C387.733 601.97 386.587 601.919 385.429 601.858C385.404 602.157 385.38 602.456 385.355 602.755C385.082 602.628 384.809 602.5 384.536 602.371C384.665 602.117 384.794 601.863 384.923 601.609C382.911 602.894 383.15 600.814 383.041 600.756C381.555 600.032 379.723 599.447 378.088 598.878C377.842 598.79 377.423 600.584 376.08 598.596C375.654 597.962 376.676 596.818 375.95 596.786C373.82 600.123 374.874 597.228 374.633 597.136C373.931 596.881 373.155 597.612 373.086 597.597C372.15 597.409 370.892 596.76 369.838 596.498C369.814 596.504 369.905 597.814 369.379 597.23C369.178 597.017 369.05 591.524 366.6 592.272C366.939 592.788 367.284 593.303 367.625 593.814C367.326 593.271 364.227 592.82 363.378 593.592C363.251 593.712 363.177 593.861 363.177 594.046C363.176 594.114 363.186 594.187 363.206 594.265C363.489 595.299 366.243 592.931 365.169 595.882C364.896 595.474 364.041 595.027 362.951 594.554C360.251 593.405 356.119 591.994 355.95 591.314C355.918 591.182 356.862 590.518 356.811 590.346C356.772 590.218 354.99 589.578 354.951 589.113C354.928 588.84 355.947 588.666 356.055 588.309C356.123 588.054 354.277 586.589 353.554 587.644C354.301 587.467 355.516 588.61 354.266 589.168C354.106 589.235 353.992 588.243 353.796 588.33C351.967 589.13 355.415 590.533 355.922 590.791C353.098 591.189 350.812 587.776 347.943 587.319C347.53 585.849 350.16 586.727 349.534 585.346C348.26 582.486 348.199 586.267 348.067 586.347C346.948 586.939 348.076 580.908 345.801 584.637C345.351 583.586 345.897 583.279 344.484 583.066C344.467 583.414 344.452 583.762 344.439 584.111C341.805 585.46 342.715 578.4 343.204 578.135C344.429 577.389 344.627 579.948 344.771 579.981C344.99 580.033 347.802 576.585 347.539 581.089C349.839 579.023 345.722 577.576 348.444 576.896C347.136 576.498 343.895 571.812 342.541 572.42C342.368 572.505 341 575.174 340.793 573.168C340.702 572.217 341.956 573.077 342.114 572.358C342.517 570.253 332.461 564.006 330.822 562.504C330.712 562.411 331.365 561.76 331.255 561.673C330.921 561.412 328.829 561.364 328.554 560.526C328.571 562.865 326.191 560.838 325.759 560.152C325.639 559.964 325.58 559.774 325.564 559.586C325.381 558.992 323.555 557.962 323.414 557.357C323.459 556.569 324.289 555.794 324.258 555.337C324.127 553.202 319.414 553.633 321.253 550.234C318.572 552.591 321.04 547.26 320.359 546.362C319.823 545.663 317.147 546.089 316.798 547.956C315.935 546.618 314.376 545.7 313.282 544.614C313.101 544.435 314.151 544.075 313.816 543.79C313.78 543.769 312.921 544.347 312.614 544.117C310.064 542.196 312.721 542.083 312.905 541.246C313.01 540.778 313.019 540.484 312.967 540.31C314.164 541.626 315.704 542.987 316.053 543.394C317.59 541.66 313.379 540.563 313.29 539.368C313.288 539.327 314.38 538.692 314.367 538.658C314.367 538.657 314.366 538.656 314.366 538.656C314.221 538.298 312.471 536.611 311.522 537.868C311.27 538.208 311.905 539.121 312.79 540.115C312.353 539.99 311.365 541.029 311.279 541.013C310.255 540.787 310.292 538.448 310.065 537.785C310.012 537.635 309.274 538.155 309.257 538.135C309.08 537.514 311.355 536.274 308.804 537.25C310.844 534.537 310.364 538.69 311.959 537.318C313.15 536.281 308.625 530.992 306.51 532.316C306.726 532.151 306.959 531.89 307.177 531.518C307.656 530.689 306.422 529.183 305.847 529.127C305.739 529.125 303.645 530.411 303.589 530.361C303.435 530.222 303.878 527.188 302.176 527.125C302.115 527.712 302.068 528.318 302.017 528.914C300.514 526.358 300.119 527.112 299.966 528.335C299.985 528.382 299.928 528.47 299.942 528.516C299.853 529.455 299.909 530.585 299.75 530.695C299.125 531.129 296.236 526.858 298.719 526.611C299.055 526.583 299.322 529.12 300.168 527.312C300.317 527.001 299.177 525.907 299.301 525.757C300.089 524.728 303.054 526.788 304.329 525.593C302.548 525.723 302.79 524.416 302.006 523.849C301.648 523.587 300.518 524.086 300.473 524.053C299.832 523.544 301.17 523.302 301.022 523.097C300.94 522.995 297.815 522.969 301.298 521.449C296.608 518.445 298.181 521.551 299.802 524.106C298.128 523.916 297.854 521.959 297.188 521.356C296.947 521.141 295.9 521.872 295.445 521.535C294.488 520.841 293.619 515.698 293.435 514.42C294.168 514.948 295.322 514.162 294.987 513.657C294.651 513.149 293.187 514.369 292.958 514.344C292.708 514.301 292.361 511.382 291.961 511.039C293.42 512.725 294.479 511.723 293.904 510.032C294.369 510.113 294.834 510.192 295.299 510.269C294.362 509.517 295.47 506.743 294.669 506.426C294.541 506.377 293.601 507.127 293.529 507.1C292.87 506.796 293.312 504.734 292.916 504.8C292.585 504.856 291.965 505.916 291.419 505.832C291.303 505.814 292.483 504.56 291.867 504.033C291.64 503.841 290.68 504.383 290.597 504.344C289.907 504.017 291.739 503.66 291.102 502.823C290.636 502.214 288.748 502.303 288.957 501.147C287.993 505.12 287.883 502.111 286.752 501.024C286.571 500.847 284.771 501.707 285.218 500.087C289.572 501.612 286.72 498.676 286.524 497.968C286.522 497.925 287.752 497.484 287.653 497.131C287.642 497.102 286.821 497.432 286.646 497.131C285.006 494.272 286.615 495.914 287.246 495.059C287.517 494.702 285.846 493.615 285.688 493.218C285.656 493.127 286.541 492.883 286.397 492.547C286.137 491.952 285.03 491.686 284.827 491.295C284.808 491.248 286.19 490.818 285.501 490.174C285.308 489.992 284.74 489.892 284.438 490.329C283.449 491.788 286.323 493.017 285.414 494.628C284.583 496.1 283.361 492.716 283.31 492.552C283.285 492.49 284.178 492.932 284.104 492.221C284.039 491.622 281.316 491.284 281.582 490.275C281.6 490.198 283.43 488.911 283.558 488.908C283.653 488.912 284.404 489.813 284.947 489.485C285.008 489.447 284.798 488.797 285.21 488.58C285.712 488.315 290.862 486.481 290.954 486.307C291.174 485.861 290.048 486.442 290.064 486.19C290.091 485.641 291.163 483.522 289.329 483.985C289.299 484.293 289.27 484.601 289.241 484.908C288.615 483.421 288.027 484.294 287.623 484.172C287.187 484.038 288.806 483.655 288.811 483.09C288.812 483.028 288.575 482.471 288.257 481.952C287.965 481.524 287.59 481.141 287.258 481.249C288.609 481.982 286.523 482.143 286.5 482.2C286.471 482.278 286.609 482.318 286.798 482.35C287.134 482.431 287.626 482.487 287.662 482.673C288.048 484.74 285.729 483.191 285.41 483.792C285.305 484 286.344 484.065 286.315 484.148C286.222 484.418 284.982 484.771 285.125 484.894C285.458 485.182 287.097 484.275 287.196 484.277C288.382 484.28 287.366 485.892 285.24 485.674C284.684 486.333 287.017 485.717 286.198 486.358C284.581 487.633 284.725 486.375 284.339 486.174C282.936 485.422 283.735 484.853 283.011 483.407C283.007 483.4 283.003 483.392 282.999 483.385C282.742 482.971 281.5 482.747 281.382 482.557C281.307 482.434 284.903 480.125 278.737 481.763C279.202 481.118 283.057 479.276 282.736 478.824C282.444 478.42 280.305 479.154 280.209 479.135C280.059 479.107 280.084 478.517 279.726 478.417C279.304 478.301 278.502 478.634 278.071 478.386C277.001 477.769 279.231 477.191 279.352 477.065C280.752 475.612 277.707 476.907 277.394 476.754C277.108 476.625 277.528 473.343 276.567 472.963C277.079 473.091 277.592 473.219 278.104 473.347C279.372 472.528 276.982 472.669 279.468 471.99C275.428 472.989 277.862 471.333 277.683 471.081C277.611 470.983 276.929 471.175 276.862 471.046C276.597 470.539 276.819 469.191 276.395 468.999C274.566 468.156 272.935 472.008 272.857 472.313C272.762 471.784 271.1 469.188 269.518 471.011C269.275 471.293 271.169 471.168 271.27 471.263C271.94 471.91 270.166 471.737 270.029 471.838C269.809 472.007 271.504 472.098 271.355 472.283C271.307 472.344 269.77 472.446 269.939 473.197C268.425 473.207 269.022 470.829 268.619 470.654C268.473 470.585 265.618 472.021 268.072 469.436C267.797 469.532 267.522 469.628 267.247 469.724C266.863 468.756 266.488 467.816 266.107 466.855C266.783 466.791 268.233 467.008 267.767 466.372C267.499 466.007 266.139 466.693 266.087 466.667C265.586 466.387 264.373 459.902 263.876 458.669C263.711 458.258 262.244 457.396 262.199 457.315C261.94 456.802 262.188 454.686 261.927 454.36C261.761 454.154 260.614 454.694 260.615 454.47C260.618 454.261 261.836 454.156 261.87 454.085C262.161 453.478 259.668 450.204 260.535 449.025C260.346 449.652 263.374 451.712 264.181 451.44C264.29 451.398 265.007 450.52 264.541 450.502C265.493 450.021 262.223 450.07 262.716 449.49C262.772 449.425 264.543 449.157 264.662 448.335C264.702 448.052 263.185 447.739 264.52 446.689C263.532 445.873 264.456 440.235 262.506 440.337C262.406 440.351 261.957 441.248 261.069 440.95C259.889 440.556 263.445 440.262 263.543 439.429C263.558 439.305 262.675 437.301 262.444 437.277C260.366 437.122 260.073 439.193 259.841 439.212C259.268 439.304 258.528 437.83 258.646 437.743C258.768 437.648 261.621 438.242 260.277 436.995C260.018 437.243 259.759 437.491 259.5 437.741C258.73 437.189 260.467 436.677 260.531 436.481C260.738 435.88 257.918 435.948 260.993 434.268C261.808 433.823 262.872 433.945 262.996 433.884C264.101 433.313 260.875 433.788 263.114 432.775C263.281 432.702 264.93 433.304 264.505 431.622C264.31 431.794 264.114 431.966 263.919 432.139C263.353 432.015 262.64 430.46 262.694 430.173C262.871 429.416 264.633 429.588 264.271 428.971C262.166 429.953 261.371 428.02 263.301 427.643C260.835 427.953 262.249 425.768 262.102 424.935C262.015 424.444 260.695 423.597 260.78 423.417C260.881 423.182 262.529 422.835 262.806 422.394C262.882 422.258 261.417 421.471 262.871 420.084C263.15 419.812 265.828 418.744 266.606 418.922C267.944 419.256 265.973 420.871 267.611 420.466C269.358 420.014 267.951 418.788 268.078 418.314C268.681 416.184 270.807 416.806 271.362 416.63C272.699 416.157 272.412 415.155 272.525 415.081C273.032 414.778 274.289 415.227 275.129 415.038C276.223 414.791 277.953 413.328 278.374 413.463C278.979 413.685 277.549 414.946 277.645 415.001C278.89 415.519 281.149 413.842 282.322 413.276C282.682 413.1 283.389 413.284 283.483 413.188C284.921 411.717 279.896 413.845 280.066 413.013C280.219 412.276 282.079 412.73 282.165 412.686C282.255 412.623 282.158 411.819 282.718 411.569C282.995 411.433 286.695 412.66 288.117 412.219C287.651 411.684 287.174 411.099 286.71 410.561C288.58 410.059 287.41 411.294 287.63 411.355C288.067 411.459 288.888 410.682 289.489 410.566C289.871 410.486 291.374 410.799 291.793 410.091C291.935 409.834 290.534 409.812 291.705 408.739C294.008 410.769 294.662 408.817 295.317 408.605C295.967 408.376 297.805 409.128 297.203 407.828C300.853 406.893 298.372 407.597 299.104 407.816C300.01 408.104 300.95 406.703 300.457 408.682C302.153 408.195 301.691 406.798 301.811 406.693C301.92 406.598 302.841 406.721 303.1 406.541C306.098 404.409 304.802 405.691 306.832 404.814C307.02 404.768 307.507 403.296 308.04 404.194C309.001 405.768 306.744 407.056 312.003 406.071C313.956 404.273 310.258 403.615 310.107 403.214C309.898 402.681 311.091 403.006 311.373 402.871C311.418 402.848 311.391 402.721 311.365 402.604C311.334 402.465 311.304 402.337 311.346 402.324C315.24 401.085 311.923 404.523 312.809 405.164C313.349 404.797 313.891 404.439 314.435 404.09C314.526 404.366 314.621 404.657 314.719 404.961C315.568 403.24 315.162 404.818 318.448 404.367C319.187 404.268 317.74 403.69 319.985 404.21C320.271 403.366 320.976 403.413 319.909 402.95C321.199 402.66 323.02 403.852 323.833 404.318C324.753 401.803 320.329 404.157 322.387 401.72C320.71 401.746 321.233 402.573 320.951 402.554C319.949 402.543 321.303 401.565 317.817 401.607C317.245 401.618 315.681 402.496 315.595 401.752C315.593 401.692 316.911 400.855 317.021 400.854C318.155 400.649 317.846 401.236 318.315 401.13C318.766 401.06 318.377 400.584 318.502 400.564C319.905 400.225 319.138 400.875 319.565 400.712C320.477 400.294 323.138 397.978 322.755 400.4C320.73 398.857 321.134 400.479 321.936 401.149C322.134 401.303 322.984 401.153 323.344 401.373C323.815 401.684 323.505 402.168 323.708 402.336C323.927 402.503 325.626 400.848 325.445 402.698C327.203 401.347 324.743 400.339 325.955 399.248C328.409 397.069 329.606 399.553 329.955 399.797C330.047 399.858 331.118 399.328 331.2 399.364C331.325 399.423 331.192 401.182 332.164 401.1C333.138 401.033 331.979 400.521 332.942 400.228C333.595 400.06 335.228 401.71 335.42 400.543C335.557 399.761 332.591 399.031 335.388 398.164C335.868 399.153 336.353 400.132 336.856 401.18C337.79 400.318 338.732 399.49 339.67 398.636C340.294 399.727 339.336 401.093 341.164 401.866C343.942 398.246 344.139 402.071 344.579 402.041C344.832 401.984 347.364 400.185 347.839 399.901C349.15 400.582 350.418 403.431 353.446 400.823C352.742 401.332 354.864 401.622 355.005 401.568C356.516 401.115 355.105 399.672 356.557 399.612C358.235 399.517 356.17 400.501 356.466 400.947C357.986 403.181 365.795 400.496 365.158 403.295C365.43 403.174 365.702 403.053 365.973 402.932C366.203 405.745 366.448 408.588 366.701 411.44C369.403 411.858 371.619 414.316 371.719 415.806C371.737 416.091 370.82 417.801 370.625 417.969C370.246 418.274 369.805 417.25 369.126 417.941C368.988 418.088 369.065 420.576 370.38 420.049C370.469 419.742 369.577 419.124 369.859 418.892C371.897 417.346 371.961 425.046 372.981 425.17C373.381 424.896 373.781 424.621 374.181 424.348C374.082 424.853 373.984 425.363 373.887 425.877ZM259.042 432.813C257.6 432.865 258.451 431.914 257.955 431.567C257.263 431.095 251.746 431.432 257.132 430.527C257.768 431.287 258.408 432.065 259.042 432.813ZM260.245 445.913C260.83 445.152 263.887 444.827 262.786 445.616C262.661 445.704 259.46 446.946 260.245 445.913ZM260.08 439.524C260.125 439.537 260.175 440.051 260.133 440.081C259.065 440.829 258.923 439.279 260.08 439.524ZM269.215 468.098C268.921 467.507 266.372 468.674 267.575 468.77C267.651 468.776 269.232 468.138 269.215 468.098ZM269.167 467.635C271.428 466.509 266.323 466.838 267.017 467.478C267.086 467.539 269.056 467.688 269.167 467.635ZM260.883 443.562C261.818 443.388 261.531 444.107 261.378 444.419C260.538 444.634 261.05 443.784 260.883 443.562ZM265.067 458.473C265.792 458.299 265.217 456.289 264.228 456.392C264.718 456.614 264.411 458.614 265.067 458.473ZM267.475 463.458C267.586 463.376 267.209 462.721 266.578 462.909C265.839 463.488 266.972 463.836 267.475 463.458ZM270.222 473.88C270.391 473.871 274.296 472.269 271.968 474.22C271.627 474.507 270.396 474.143 270.268 474.247C270.021 474.458 269.918 474.601 269.918 474.693C269.429 474.214 269.104 473.634 269.334 473.512C270.418 472.922 270.151 473.88 270.222 473.88ZM274.705 478.51C275.396 478.45 275.251 479.31 275.027 479.559C274.984 479.603 273.216 479.941 273.439 480.252C273.622 480.502 275.283 479.604 275.147 480.224C275.011 480.85 273.547 480.46 273.47 480.532C273.369 480.628 274.396 481.262 273.357 481.517C272.587 481.704 272.857 480.652 272.634 480.473C272.347 480.242 271.168 480.935 271.311 480.382C271.401 480.035 273.686 479.594 273.782 479.5C273.858 479.422 272.286 478.725 274.698 478.513C274.7 478.512 274.703 478.511 274.705 478.51ZM270.059 474.822C269.971 474.799 269.917 474.759 269.918 474.693C269.962 474.737 270.012 474.78 270.059 474.822ZM260.456 434.241C259.837 434.709 258.729 434.079 259.545 433.485C260.279 433.3 260.553 434.168 260.456 434.241ZM272.028 474.866C271.699 475.879 270.756 475.452 270.059 474.822C270.546 474.951 272.137 474.527 272.028 474.866ZM264.541 450.502C264.383 450.582 264.128 450.674 263.7 450.789C264.144 450.57 264.393 450.496 264.541 450.502ZM264.31 452.736C265.801 453.098 265.372 451.679 264.44 451.936C264.088 452.033 264.25 452.721 264.31 452.736ZM269.304 468.938C269.414 468.841 273.618 468.772 270.278 468.131C270.018 469.02 269.373 468.328 269.032 468.433C268.048 468.728 269.346 469.761 268.996 470.165C270.83 469.914 268.939 469.26 269.304 468.94C269.304 468.94 269.304 468.939 269.304 468.938ZM276.685 489.423C275.587 489.502 275.718 488.707 275.648 488.229C276.745 488.151 276.607 488.929 276.685 489.423ZM368.615 597.298C364.749 596.809 365.984 592.561 368.492 595.465C368.541 595.525 368.987 596.968 368.615 597.298ZM339.108 580.29C339.885 578.505 341.083 578.962 341.316 580.07C341.368 580.319 340.871 582.315 339.998 582.184C341.306 580.275 340.815 578.874 339.108 580.29ZM273.34 475.034C274.638 474.953 273.972 475.966 273.899 476.428C272.818 476.45 273.052 475.498 273.34 475.034ZM357.914 590.037C357.609 589.724 356.614 591.084 356.616 591.24C356.623 591.953 357.92 591.096 357.914 590.037ZM272.858 472.486C273.583 472.251 274.571 473.103 272.771 473.655C272.846 473.411 272.403 472.634 272.858 472.486ZM276.979 488.381C277.293 488.073 278.257 488.918 277.981 489.341C277.196 489.546 276.771 488.572 276.979 488.381ZM351.707 587.42C351.445 587.111 350.651 586.613 350.229 587.146C349.7 587.813 351.054 588.245 351.707 587.42ZM407.109 605.858C407.067 606.159 405.554 608.017 405.255 607.371C404.693 606.14 407.13 605.644 407.109 605.858ZM361.796 590.948C362.187 592.87 361.659 590.941 361.004 592.471C361.699 592.863 363.427 593.729 362.888 591.691C362.785 591.297 362.081 591.2 361.796 590.948ZM361.07 589.994C360.733 590.432 359.236 591.601 359.95 591.806C360.281 591.898 361.566 590.415 361.07 589.994ZM400.808 604.986C400.457 603.37 403.596 605.014 403.621 605.284C403.637 605.429 403.638 605.562 403.629 605.673C403.869 605.253 404.512 605.332 404.289 606.494C404.126 606.352 403.59 606.32 403.563 606.177C403.551 606.117 403.545 606.061 403.545 606.006C403.07 606.943 400.879 605.295 400.808 604.986ZM395.546 601.99C396.991 600.135 396.157 603.737 396.052 603.832C394.709 605.03 396.048 602.573 396.053 602.442C396.045 602.219 395.037 603.252 395.549 601.991C395.548 601.991 395.547 601.99 395.546 601.99ZM399.818 604.093C399.865 604.056 400.543 604.355 400.557 604.419C400.82 605.774 398.895 604.932 399.818 604.093ZM278.314 481.937C278.086 482.498 276.65 482.399 277.038 481.963C277.078 481.925 278.516 481.443 278.314 481.937ZM360.398 590.081C360.347 589.788 357.007 587.048 356.297 588.976C356.726 588.947 360.617 592.017 360.398 590.081ZM333.446 572.751C334.035 573.235 332.182 574.241 332.31 573.421C332.36 573.117 333.298 572.631 333.446 572.751ZM274.182 470.642C273.019 470.413 276.494 469.591 275.43 470.346C275.388 470.376 274.228 470.651 274.182 470.642ZM337.635 577.311C334.804 576.69 338.956 572.151 340.462 575.776C340.217 575.938 339.973 576.1 339.728 576.261C342.41 579.265 339.692 576.778 338.714 576.491C338.34 576.382 337.991 577.394 337.633 577.318C337.634 577.316 337.634 577.314 337.635 577.311ZM330.441 570.159C331.347 565.231 333.122 570.431 334.566 570.826C332.421 571.421 331.224 570.093 331.915 573.021C328.985 571.106 331.224 570.676 331.204 570.478C331.182 570.25 330.402 570.371 330.441 570.159ZM335.635 574.261C335.825 574.247 336.172 575.619 336.579 575.739C335.242 576.606 334.335 574.358 335.635 574.261ZM389.131 601.203C389.531 600.105 389.943 599.331 390.458 599.937C390.096 600.441 389.545 600.805 389.131 601.203ZM264.853 430.758C264.838 430.36 265.063 429.461 263.936 430.004C263.844 430.067 264.185 430.926 264.853 430.758ZM349.92 583.46C349.878 583.28 347.133 581.511 347.431 583.195C347.523 583.714 350.188 585.092 349.92 583.46ZM364.719 591.186C364.67 591.162 364.586 591.133 364.482 591.103C364.076 590.989 363.371 590.873 363.264 591.065C362.911 591.706 363.67 591.901 364.261 591.602C364.442 591.51 364.607 591.372 364.719 591.186ZM265.509 428.489C265.614 428.408 265.107 427.277 264.589 427.538C263.621 428.075 265.147 428.759 265.509 428.489ZM281.412 482.916C281.48 483.003 280.293 483.467 280.289 483.504C280.291 483.536 280.421 483.78 280.499 484.066C280.664 484.673 280.681 485.413 279.539 485.151C279.451 485.13 279.364 484.828 279.288 484.396C279.156 483.545 279.12 482.095 279.165 481.831C280.808 481.245 279.511 482.777 279.757 483C279.803 483.039 281.215 482.687 281.404 482.918C281.407 482.917 281.409 482.917 281.412 482.916ZM392.8 600.988C393.199 599.955 395.754 599.914 395.363 601.194C394.518 601.131 393.66 601.062 392.8 600.988ZM391.634 600.463C391.341 599.564 392.608 599.661 392.864 600.093C392.663 600.809 391.677 600.595 391.634 600.463ZM361.046 584.918C360.642 585.021 360.807 586.898 360.474 587.084C360.265 587.2 359.888 586.341 359.462 586.692C359.331 586.807 359.316 588.491 359.539 588.527C359.847 588.58 360.11 587.38 360.405 587.515C361.387 587.964 361.89 589.143 362.825 589.552C362.909 589.587 362.618 588.524 363.322 588.862C363.432 588.912 363.562 590.355 364.498 590.567C364.612 590.478 364.722 590.396 364.829 590.321C367.931 588.103 367.883 591.914 370.627 591.556C370.679 591.185 369.332 589.576 369.247 589.499C368.467 588.855 367.309 588.176 366.074 587.515C364.645 586.753 363.155 586.033 362.061 585.501C361.542 585.247 361.436 586.109 361.198 586.027C361.01 585.961 361.891 584.695 361.046 584.918ZM265.721 430.755C267.148 430.191 266.056 429.806 266.021 429.347C264.73 429.841 265.946 430.27 265.721 430.755ZM380.837 595.873C380.569 595.846 379.936 595.148 379.723 595.559C379.447 596.097 380.457 596.838 380.837 595.873ZM284.657 495.303C284.704 495.315 284.83 495.952 284.792 495.99C283.815 496.924 283.442 495.003 284.657 495.303ZM289.917 510.222C290.289 510.622 290.927 510.903 289.861 511.55C289.905 511.175 289.101 510.501 289.917 510.222ZM300.212 530.715C301.547 529.8 301.466 531.713 301.505 532.055C300.83 532.331 299.246 531.376 300.212 530.715ZM390.482 596.309C391.244 596.634 391.765 594.234 391.948 595.443C391.976 595.646 390.808 600.619 390.479 598.531C390.42 598.155 391.372 597.173 390.482 596.309ZM340.882 576.134C341.719 575.416 342.219 576.151 342.644 576.544C342.088 577.128 341.257 576.306 340.882 576.134ZM266.15 426.026C267.537 425.35 266.058 424.054 265.187 424.684C265.074 424.769 266.155 425.812 266.15 426.026ZM278.525 475.521C279.84 475.831 279.848 474.45 278.618 474.352C278.741 474.513 278.438 475.499 278.525 475.521ZM298.222 525.418C298.285 525.432 298.626 526.293 298.595 526.357C297.872 527.622 296.893 525.171 298.222 525.418ZM289.763 504.606C290.783 504.537 290.814 506.758 290.083 507.555C288.585 507.684 288.472 504.668 289.763 504.606ZM387.006 595.982C387.598 596.113 388.046 596.565 388.448 597.129C388.099 597.885 386.887 596.591 387.006 595.982ZM299.966 528.335C299.985 528.382 299.928 528.47 299.942 528.516C299.948 528.456 299.959 528.394 299.966 528.335ZM373.789 590.841C373.379 590.336 372.946 591.786 372.962 591.842C373.188 592.453 374.254 591.411 373.789 590.841ZM267.773 429.731C269.06 429.264 267.852 428.799 268.063 428.312C267.048 428.687 267.558 429.463 267.773 429.731ZM330.238 566.322C330.627 564.709 334.103 565.436 334.005 566.579C333.466 567.327 330.186 566.555 330.238 566.322ZM279.981 473.075C281 472.756 279.52 472.214 279.083 472.532C278.805 472.733 279.347 473.273 279.981 473.075ZM334.833 568.064C335.267 567.996 335.151 569.254 334.558 569.601C333.792 570.042 334.714 568.087 334.833 568.064ZM357.489 582.032C357.458 581.834 355.407 581.97 355.521 583.27C355.605 584.176 356.408 582.855 356.512 582.905C356.619 582.973 358.215 585.944 357.489 582.032ZM317.367 551.72C318.057 551.908 318.148 552.757 318.562 553.199C317.901 553.443 316.851 552.474 317.367 551.72ZM281.177 476.406C281.568 476.197 281.031 473.216 280.196 475.222C280.153 475.349 280.001 477.065 281.177 476.406ZM390.482 596.309C390.386 596.268 390.285 596.185 390.182 596.044C390.303 596.123 390.397 596.227 390.482 596.309ZM381.343 593.254C381.783 592.583 380.886 592.06 380.465 592.352C380.068 593.22 381.286 593.35 381.343 593.254ZM319.418 552.533C319.979 552.507 320.029 553.296 320.345 553.584C319.753 554.004 318.953 553.121 319.418 552.533ZM304.966 531.329C304.982 532.177 305.643 532.859 306.396 532.396C306.288 532.483 306.183 532.591 306.09 532.72C305.998 532.85 306.767 533.296 306.697 533.744C306.267 536.468 301.616 527.546 306.777 531.167C306.172 531.221 305.57 531.277 304.966 531.329ZM290.724 501.279C291.597 500.544 289.959 499.988 289.658 500.398C289.452 500.684 289.844 502.022 290.724 501.279ZM297.255 515.188C297.374 514.993 296.225 514.311 295.699 514.523C295.421 515.347 296.688 516.076 297.255 515.188ZM290.888 498.041C290.96 497.758 289.223 498.047 289.161 498.098C288.644 498.538 290.116 498.752 290.888 498.041ZM390.198 591.345C390.026 590.774 388.652 591.667 388.086 592.69C388.11 592.466 388.083 592.155 387.981 591.76C387.982 591.761 387.982 591.761 387.983 591.761C387.885 591.279 379.584 588.013 384.578 591.979C384.733 592.103 384.81 591.048 385.472 591.451C385.515 591.479 385.282 592.286 385.416 592.372C385.727 592.567 387.358 593.634 387.913 593.097C387.87 593.246 387.849 593.395 387.858 593.54C387.945 594.835 390.337 591.788 390.198 591.345ZM298.346 517.107C298.528 516.771 297.956 516.267 297.257 516.52C297.081 516.996 297.922 517.892 298.346 517.107ZM284.087 475.522C284.585 475.031 283.26 474.494 282.744 474.905C282.425 475.155 283.515 476.087 284.087 475.522ZM295.025 510.868C295.267 513.58 295.338 511.402 296.49 511.321C296.002 511.174 295.514 511.023 295.025 510.868ZM399.285 596.865C399.017 596.533 399.973 594.571 400.03 595.792C400.048 596.18 399.436 597.047 399.285 596.865ZM413.931 599.976C414.13 598.066 415.146 599.473 414.327 600.611C414.293 600.648 413.932 600.051 413.931 599.976ZM404.122 596.664C403.572 597.858 403.389 597.968 402.848 597.494C403.863 597.385 403.3 596.053 404.122 596.664ZM306.51 532.316C306.468 532.347 306.438 532.371 306.396 532.396C306.434 532.367 306.471 532.341 306.51 532.316ZM289.807 495.96C290.743 495.312 290.39 494.517 289.427 495.113C289.337 495.168 288.999 496.102 289.807 495.96ZM388.086 592.69C388.065 592.889 388.008 593.005 387.913 593.097C387.953 592.956 388.01 592.828 388.086 592.69ZM292.21 500.062C291.429 500.311 291.598 501.677 291.709 501.697C293.31 501.922 292.439 500.546 292.21 500.062ZM283.374 468.467C283.277 468.436 281.33 469.325 282.185 469.319C282.848 469.314 283.741 468.579 283.374 468.467ZM406.35 596.7C406.69 596.79 407.168 596.912 407.005 597.906C406.816 597.699 406.159 597.411 406.35 596.7ZM413.761 598.513C413.084 599.559 412.194 599.331 411.668 598.998C412.039 597.491 413.307 598.776 413.761 598.513ZM391.028 592.199C391.016 592.13 390.23 591.41 390.054 592.442C389.801 593.957 391.127 592.819 391.028 592.199ZM282.718 470.343C283.508 470.524 285.404 469.107 283.66 469.164C282.767 469.192 282.586 470.311 282.718 470.343ZM290.317 492.959C289.554 492.564 289.01 494.343 290.109 494.199C290.103 493.905 290.586 493.099 290.317 492.959ZM299.046 512.354C301.065 509.227 296.31 512.576 296.92 512.705C297.007 512.724 299 512.431 299.046 512.354ZM271.263 420.651C270.786 420.537 269.457 421.73 270.493 421.592C271.139 421.5 271.566 420.72 271.263 420.651ZM312.967 540.31C312.907 540.245 312.848 540.18 312.79 540.115C312.869 540.138 312.933 540.197 312.967 540.31ZM292.697 486.515C288.835 489.035 292.067 487.935 292.08 488.044C292.107 488.296 291.135 489.204 291.463 489.594C290.827 489.23 290.192 488.858 289.556 488.481C289.368 488.989 288.939 493.035 289.66 492.905C290.665 492.697 289.995 491.666 290.071 491.604C290.177 491.518 292.828 490.482 292.899 490.348C293.008 490.14 292.148 487.164 292.697 486.515ZM296.891 508.709C296.708 509.14 295.713 509.672 296.02 509.704C296.125 509.715 297.113 509.296 297.437 509.345C297.255 509.134 297.073 508.922 296.891 508.709ZM288.215 485.369C289.37 484.643 289.362 486.404 289.237 486.496C288.466 487.027 287.27 485.964 288.215 485.369ZM292.878 499.116C292.927 499.03 292.859 497.633 292.178 497.886C291.773 498.41 292.236 500.152 292.878 499.116ZM297.59 509.513C297.668 510.006 297.051 511.279 298.485 510.525C298.485 510.524 298.484 510.524 298.484 510.523C298.186 510.189 297.888 509.853 297.59 509.513ZM286.347 470.69C288.652 469.353 285.597 470.514 284.955 471.323C286.119 471.202 285.972 470.909 286.347 470.69ZM287.619 468.035C288.015 467.722 287.008 465.933 285.772 466.58C285.331 466.809 286.81 467.597 286.733 467.674C286.619 467.788 285.069 467.824 285.517 468.34C286 468.172 287.487 468.139 287.619 468.035ZM287.789 469.709C289.502 468.542 285.972 469.317 286.1 469.83C286.146 470.025 287.542 469.877 287.789 469.709ZM288.229 472.517C288.494 472.185 288.802 471.41 287.523 471.282C287.584 471.9 287.645 472.521 287.708 473.146C288.384 473.037 287.996 472.808 288.228 472.515C288.228 472.516 288.229 472.516 288.229 472.517ZM420.059 590.555C419.777 589.429 421.094 589.354 421.085 589.61C421.035 590.459 420.186 591.058 420.059 590.555ZM302.075 408.579C302.435 408.334 303.719 407.928 302.958 407.772C302.071 408.325 301.185 408.878 300.304 409.452C302.575 409.181 301.675 408.844 302.075 408.579ZM309.842 405.387C309.907 405.422 313.243 404.353 311.118 405.495C309.682 406.258 307.67 404.437 309.086 403.677C309.892 403.969 309.317 405.119 309.842 405.387ZM323.774 398.512C323.908 398.473 324.102 398.56 324.243 398.683C324.386 398.814 324.486 399.017 324.397 399.067C323.48 399.713 322.314 398.837 323.774 398.512ZM323.633 400.909C324.21 400.4 324.819 401.082 324.506 401.449C323.877 401.617 323.547 400.977 323.633 400.909ZM427.013 540.148C427.179 537.742 425.556 542.602 426.447 541.766C426.49 541.727 427.002 540.266 427.013 540.148ZM327.341 398.339C326.748 398.797 326.16 398.164 326.523 397.987C326.84 397.916 327.059 397.958 327.194 398.052C327.329 398.142 327.388 398.319 327.341 398.339ZM428.106 534.592C427.977 532.798 426.764 538.404 426.776 538.646C426.835 539.602 428.358 537.665 428.693 537.173C427.029 537.641 428.167 535.438 428.106 534.592ZM424.738 537.289C424.08 537.752 425.085 539.216 425.728 537.73C425.456 537.74 424.925 537.154 424.738 537.289ZM422.145 534.723C421.927 534.455 421.256 533.771 420.895 534.609C421.226 534.527 421.797 535.592 422.145 534.723ZM422.219 531.95C422.113 530.655 421.11 534.084 421.86 533.181C421.889 533.146 422.217 532.02 422.219 531.95ZM420.22 530.091C420.315 528.647 419.117 531.906 419.531 532.113C419.656 532.168 420.207 530.256 420.22 530.091ZM428.935 528.441C428.687 527.749 427.565 530.019 428.349 530.498C427.957 530.79 427.564 531.08 427.173 531.371C427.947 533 428.708 529.65 428.994 529.868C429.393 530.177 428.664 532.917 428.356 533.756C429.15 532.166 430.727 532.535 431.723 532.444C431.096 531.535 430.108 529.984 429.438 529.339C429.247 529.152 428.84 529.851 428.671 529.719C428.402 529.502 428.947 528.486 428.936 528.441C428.936 528.441 428.935 528.441 428.935 528.441ZM417.218 529.229C416.865 527.464 416.437 530.948 417.044 530.472C417.075 530.431 417.227 529.272 417.218 529.229ZM337.58 395.761C337.185 395.637 336.83 395.865 336.505 395.96C336.183 396.077 335.913 396.179 335.784 396.283C335.531 396.516 335.82 396.678 337.487 397.394C335.266 396.976 336.024 397.675 335.172 397.692C334.494 397.692 334.921 397.108 333.687 397.676C334.354 397.347 334.489 396.765 334.53 396.427C334.557 396.296 334.55 396.159 334.619 396.429C334.638 396.502 334.66 396.604 334.687 396.731C334.701 396.795 334.715 396.865 334.73 396.94C334.744 397.007 334.78 397.219 334.808 397.402C334.933 398.092 335.082 399.768 335.111 400.47C335.11 400.424 335.109 400.378 335.108 400.334C335.157 401.076 335.383 401.239 335.696 400.561C336.007 399.914 336.351 398.778 336.647 397.959C336.947 397.123 337.21 396.47 337.428 396.303C337.63 396.035 337.712 395.837 337.58 395.761ZM424.424 525.932C425.219 521.784 423.429 528.23 423.79 524.714C421.813 529.441 425.707 525.214 424.962 529.445C422.211 528.22 425.805 534.046 425.395 527.318C426.469 529.997 426.134 526.688 426.592 525.962C427.08 525.188 427.785 526.345 428.125 524.811C428.125 524.811 428.124 524.811 428.124 524.811C427.523 524.771 426.923 524.731 426.327 524.691C426.043 528.114 425.125 526.83 425.426 524.058C425.093 524.682 424.759 525.307 424.424 525.932ZM426.869 529.843C426.832 529.753 425.46 529.892 425.373 530.571C425.431 531.034 427.343 530.986 426.869 529.843ZM432.638 530.536C432.178 530.412 431.63 529.594 431.069 530.769C431.525 530.893 432.076 531.712 432.638 530.536ZM410.267 524.275C409.444 525.12 410.951 525.901 410.847 524.573C410.841 524.511 410.305 524.236 410.267 524.275ZM422.986 526.215C422.743 524.819 421.97 528.855 422.666 527.933C422.706 527.878 422.997 526.278 422.986 526.215ZM338.1 395.803C339.07 395.548 338.676 396.994 338.755 397.286C337.802 397.319 336.95 395.947 338.1 395.803ZM434.362 527.094C434.321 523.361 432.07 527.097 431.957 526.975C431.845 526.851 432.441 525.373 432.421 525.324C432.371 525.22 430.911 524.989 430.817 525.079C430.746 525.149 430.462 527.365 429.996 527.969C430.874 526.891 433.308 528.315 433.508 528.111C433.662 527.948 433.428 525.487 434.36 527.094C434.361 527.094 434.361 527.094 434.362 527.094ZM431.737 526.421C431.868 527.413 430.836 527.273 430.679 526.879C430.33 525.999 431.716 526.302 431.737 526.421ZM429.549 524.984C429.487 524.754 428.514 524.311 428.173 525.292C428.322 526.716 429.687 525.521 429.549 524.984ZM418.489 522.226C418.206 522.286 417.738 521.33 417.457 522.191C417.738 522.132 418.211 523.088 418.489 522.226ZM346.929 398.834C347.563 398.237 348.099 399.13 347.823 399.529C347.24 399.683 346.873 398.878 346.929 398.834ZM425.084 517.822C424.995 517.517 421.785 517.374 421.262 517.668C421.484 518.44 424.489 519.294 424.721 519.007C424.786 518.921 425.092 517.869 425.084 517.822ZM431.976 519.161C432.596 517.944 432.397 519.542 432.429 519.57C432.742 519.86 433.575 519.76 433.096 520.962C432.574 520.297 430.742 521.578 431.976 519.161ZM419.88 516.356C418.746 516.556 420.3 518.44 420.416 517.028C420.422 516.942 419.996 516.335 419.88 516.356ZM425.526 517.537C426.02 516.555 428.897 518.258 429.413 518.39C428.467 520.197 428.476 518.643 427.847 518.585C427.676 518.572 427.513 519.383 427.496 519.38C427.203 519.344 427.653 518.475 427.483 518.416C427.371 518.382 424.814 518.919 425.526 517.537ZM432.369 518.309C432.733 517.614 434.825 517.804 434.86 518.022C435.099 519.639 432.454 518.605 432.369 518.309ZM425.692 515.755C426.602 513.609 427.743 515.503 426.405 516.343C426.278 516.418 426.109 515.34 425.692 515.755ZM420.57 514.267C420.538 514.188 419.631 513.458 419.417 514.16C419.484 514.476 420.929 515.14 420.57 514.267ZM421.764 512.02C421.735 512.03 421.604 513.461 421.166 513.155C421.129 513.127 421.477 511.573 420.716 511.967C420.561 512.048 420.089 513.01 420.085 513.077C420.051 515.66 423.24 511.573 421.764 512.02ZM432.722 517.068C432.778 516.39 433.526 514.523 433.513 515.561C433.507 516.009 433.028 517.122 432.722 517.068ZM417.515 512.738C418.425 511.743 416.681 511.001 416.508 511.271C416.35 512.01 417.422 512.835 417.515 512.738ZM356.242 397.631C356.241 397.63 356.241 397.63 356.241 397.629C356.103 398.217 355.047 398.133 355.023 398.165C353.868 399.653 356.009 398.823 356.314 398.937C356.98 399.208 354.268 399.781 355.546 400.163C353.635 399.499 354.566 400.301 353.618 400.571C349.746 401.668 355.083 398.655 354.139 398.346C354.008 398.299 352.895 399.148 352.494 399.047C351.195 398.719 356.749 395.295 356.242 397.631ZM433.737 515.436C434.28 514.355 435.969 515.961 435.211 516.773C435.086 516.903 432.935 517.01 433.737 515.436ZM381.735 485.151C382.755 484.852 383.412 483.642 382.671 483.955C382.3 484.109 381.284 485.278 381.735 485.151ZM383.128 478.864C382.787 478.667 378.84 480.321 379.635 480.409C379.723 480.421 382.628 479.181 383.128 478.864ZM393.18 495.728C393.915 494.36 392.123 496.551 392.327 496.667C392.398 496.708 393.157 495.771 393.18 495.728ZM385.629 487.672C385.688 487.585 385.293 487.344 384.772 487.733C384.547 488.09 385.22 488.264 385.629 487.672ZM393.51 495.477C393.046 495.757 391.999 497.546 393.429 496.129C393.238 496.186 393.556 495.448 393.51 495.477ZM426.148 509.407C425.581 510.459 424.907 509.917 424.424 509.994C424.765 508.527 425.762 509.588 426.148 509.407ZM382.33 480.966C381.243 481.2 380.838 482.247 382.024 481.494C382.085 481.449 382.376 480.955 382.33 480.966ZM401.511 500.52C400.914 501.224 400.956 502.601 401.508 501.11C401.529 501.049 401.543 500.48 401.511 500.52ZM403.893 502.234C403.865 501.891 403.207 501.693 403.084 502.601C403.064 502.74 403.548 502.982 403.893 502.234ZM357.375 398.71C358.84 398.192 358.699 399.157 358.469 399.351C358.37 399.42 355.475 399.413 357.375 398.71ZM391.809 494.237C391.558 494.273 391.487 493.713 390.883 494.259C391.146 494.274 390.775 495.481 391.809 494.237ZM383.079 482.241C384.381 481.144 384.004 480.826 382.164 482.03C382.562 482.42 383.833 480.977 383.079 482.241ZM395.401 494.672C395.389 494.5 394.01 496.099 393.959 496.185C393.484 497.014 394.99 495.393 395.401 494.672ZM388.761 490.386C389.456 489.814 388.814 489.665 388.403 490.079C388.263 490.218 388.197 490.85 388.761 490.386ZM417.278 506.405C417.216 505.529 418.345 505.024 418.348 506.025C418.09 507.392 417.287 506.507 417.278 506.405ZM397.736 497.006C398.491 495.903 397.589 496.207 397.158 497.253C397.051 497.516 397.485 497.376 397.736 497.006ZM403.49 498.457C402.393 499.7 403.54 501.506 403.957 499.502C403.983 499.359 403.577 498.351 403.49 498.457ZM405.746 500.577C405.742 500.385 407.52 496.258 407.144 497.978C407.098 498.203 406.456 499.222 406.383 499.486C406.337 499.636 406.779 500.5 406.859 500.418C406.938 500.322 407.436 498.969 407.531 498.833C407.635 498.681 407.598 500.029 407.838 500.137C408.282 500.335 408.765 499.234 408.802 499.245C408.914 499.279 408.799 500.146 409.031 500.232C410.192 500.66 412.479 500.377 412.797 503.154C412.137 501.862 410.905 502.586 409.894 502.581C410.991 500.316 407.947 503.929 409.828 501.538C409.133 501.974 405.688 501.171 405.746 500.578C405.746 500.577 405.746 500.577 405.746 500.577ZM383.619 477.088C385.076 476.569 384.295 475.795 382.662 476.492C382.507 476.736 383.451 477.144 383.619 477.088ZM389.167 479.347C389.443 479.289 392.037 477.785 390.984 478.972C390.984 478.972 390.984 478.973 390.984 478.973C390.679 479.322 389.978 479.58 389.77 479.738C389.683 479.8 388.651 480.963 388.255 480.783C387.647 480.504 390.121 479.558 389.995 479.296C389.981 479.269 388.31 479.649 388.02 479.857C387.986 479.882 388.367 479.847 388.255 479.947C387.834 480.327 387.009 480.772 386.978 480.808C386.908 480.914 388.733 480.828 387.626 481.68C387.271 481.967 385.596 481.234 385.766 481.055C385.872 480.947 388.108 479.619 388.308 479.456C388.407 479.375 387.272 479.372 387.439 479.182C387.488 479.128 387.543 479.076 387.59 479.034C386.941 479.519 386.719 479.021 387.514 478.583C387.828 478.413 387.833 478.833 387.786 478.876C387.766 478.894 387.737 478.917 387.718 478.933C388.526 478.379 389.108 479.44 390.223 478.46C391.084 478.339 388.366 479.528 389.167 479.347ZM391.406 479.895C391.158 480.015 390.909 480.133 390.66 480.252C391.546 480.391 390.834 481.695 391.254 482.283C391.358 482.431 392.612 481.305 392.371 481.758C392.176 482.119 391.033 483.189 390.691 483.303C390.604 483.331 391.206 482.43 391.011 482.331C390.432 482.032 389.331 482.959 389.279 482.953C389.223 482.944 389.853 482.076 389.707 481.937C389.338 481.591 388.467 481.87 389.074 480.681C390.079 480.5 391.692 479.212 391.406 479.895ZM401.919 494.833C402.389 494.062 402.27 494.919 402.443 494.864C401.978 495.641 402.086 494.777 401.919 494.833ZM372.559 430.052C371.065 430.201 371.167 432.013 372.238 431.244C372.476 431.073 372.605 430.268 372.559 430.052ZM373.724 437.934C374.181 438.058 374.964 436.857 373.857 437.156C373.502 437.251 373.664 437.918 373.724 437.934ZM395.246 487.468C395.299 487.46 395.315 487.99 395.266 488.049C394.244 489.278 394.052 487.637 395.246 487.468ZM377.98 446.751C376.829 446.21 377.068 448.712 378.066 447.658C378.114 447.605 378.036 446.776 377.98 446.751ZM379.14 450.003C379.039 449.827 379.278 448.864 378.838 448.972C378.13 449.145 377.908 450.233 379.14 450.003ZM398.899 490.304C399.893 488.964 399.48 490.241 399.737 490.17C398.762 491.528 399.153 490.236 398.899 490.304ZM397.368 487.406C399.773 487.773 397.125 490.205 396.726 487.92C397.446 487.128 397.213 487.376 397.368 487.406ZM399.205 489.23C398.484 490.024 398.503 489.632 398.44 489.47C398.931 488.911 399.002 489.315 399.205 489.23ZM374.243 427.454C375.626 427.402 374.357 429.115 373.758 429.029C373.626 429.003 373.498 427.543 374.243 427.454ZM396.505 486.746C397.697 485.644 397.789 486.774 397.569 487.069C396.66 488.237 396.819 486.565 396.505 486.746ZM401.93 490.726C402.713 489.72 402.581 490.415 402.724 490.527C402.069 491.398 402.042 490.828 401.93 490.726ZM401.44 489.177C401.478 489.144 401.609 489.379 401.585 489.433C401.036 490.567 400.64 489.894 401.44 489.177ZM367.918 393.978C367.962 393.986 367.994 394.459 367.952 394.489C366.866 395.185 366.775 393.765 367.918 393.978Z" fill="#EA4448" style="fill:#EA4448;fill:color(display-p3 0.9176 0.2667 0.2824);fill-opacity:1;"/>
</g>
<defs>
<clipPath id="clip0_186_157">
<rect width="512" height="512" rx="128" fill="white" style="fill:white;fill-opacity:1;"/>
</clipPath>
</defs>
</svg>
