<svg xmlns="http://www.w3.org/2000/svg" fill="none" viewBox="0 0 100 100">
  <path fill="color(display-p3 .9059 .7451 .6353)" d="M10.6158 21.1042C8 26.2381 8 32.9587 8 46.4v7.2c0 13.4413 0 20.1619 2.6158 25.2958 2.301 4.5159 5.9725 8.1874 10.4884 10.4884C26.2381 92 32.9587 92 46.4 92h7.2c13.4413 0 20.1619 0 25.2958-2.6158 4.5159-2.301 8.1874-5.9725 10.4884-10.4884C92 73.7619 92 67.0413 92 53.6v-7.2c0-13.4413 0-20.1619-2.6158-25.2958-2.301-4.5159-5.9725-8.1874-10.4884-10.4884C73.7619 8 67.0413 8 53.6 8h-7.2c-13.4413 0-20.1619 0-25.2958 2.6158-4.5159 2.301-8.1874 5.9725-10.4884 10.4884Z"/>
  <path fill="color(display-p3 .9176 .2667 .2824)" d="M69 91.7016c-3.6557.2767-8.1668.2968-14 .2983V76c0-2.2091 1.7909-4 4-4h6c2.2091 0 4 1.7909 4 4v15.7016Z"/>
  <path fill="color(display-p3 .5922 .251 .3608)" d="M92 50H8v-3.6c0-13.4413 0-20.1619 2.6158-25.2958 2.301-4.5159 5.9725-8.1874 10.4884-10.4884C26.2381 8 32.9587 8 46.4 8h7.2c13.4413 0 20.1619 0 25.2958 2.6158 4.5159 2.301 8.1874 5.9725 10.4884 10.4884C92 26.2381 92 32.9587 92 46.4V50Z"/>
  <path fill="color(display-p3 .2824 .1294 .3569)" d="M74.0074 8.95753C69.3911 8 63.2151 8 53.6 8h-7.2c-9.6151 0-15.7911 0-20.4074.95753l9.2266 18.19657c.3703.7303 1.4135.7303 1.7838 0l3.6019-7.1035c.3985-.7861 1.5453-.7095 1.8359.1225l3.0006 8.5913c.2916.8348 1.4437.9082 1.8388.117l1.8251-3.655c.3684-.7377 1.421-.7377 1.7894 0l1.8251 3.655c.3951.7912 1.5472.7178 1.8388-.117l3.0006-8.5913c.2906-.832 1.4374-.9086 1.8359-.1225l3.6019 7.1035c.3703.7303 1.4135.7303 1.7838 0l9.2266-18.19657ZM11.7322 80.8537c-.4013-.6328-.774-1.286-1.1164-1.9579C8 73.7619 8 67.0413 8 53.6v-3.4551l17.3565 9.3071c.7032.3771.7032 1.3855 0 1.7626l-8.213 4.4041c-.7032.3771-.7032 1.3855 0 1.7626l8.213 4.4041c.7032.3771.7032 1.3855 0 1.7626l-13.6243 7.3057ZM92 50.1449V53.6c0 13.4413 0 20.1619-2.6158 25.2958-.3424.6719-.7151 1.3251-1.1164 1.9579L74.6435 73.548c-.7032-.3771-.7032-1.3855 0-1.7626l8.213-4.4041c.7032-.3771.7032-1.3855 0-1.7626l-8.213-4.4041c-.7032-.3771-.7032-1.3855 0-1.7626L92 50.1449Z"/>
  <path fill="color(display-p3 .9804 .8471 .498)" d="M26 32c-2.2091 0-4 1.7909-4 4v3c0 2.2091 1.7909 4 4 4h14c2.2091 0 4-1.7909 4-4v-3c0-2.2091-1.7909-4-4-4H26Zm34 0c-2.2091 0-4 1.7909-4 4v3c0 2.2091 1.7909 4 4 4h14c2.2091 0 4-1.7909 4-4v-3c0-2.2091-1.7909-4-4-4H60Z"/>
</svg>
