<svg xmlns="http://www.w3.org/2000/svg" fill="none" viewBox="0 0 42 32">
  <path fill="#000" d="M21 15.104c1.264-2.49 4.715-7.128 7.924-9.373 3.062-2.197 4.229-1.807 5.007-1.465.875.39 1.069 1.758 1.069 2.588 0 .78-.486 6.59-.73 7.567-.971 3.222-4.374 4.296-7.485 3.954 4.57.684 8.215 3.271 3.208 8.3-6.611 5.81-7.924-1.318-8.993-5.029-1.118 3.71-3.306 11.132-9.139 5.029-5.347-5.956-1.264-7.616 3.306-8.3-3.111.342-6.514-.732-7.438-3.954C7.437 13.444 7 7.635 7 6.854c0-.83.146-2.197 1.02-2.588.779-.342 1.945-.732 5.008 1.465 3.208 2.245 6.66 6.883 7.972 9.373Z"/>
</svg>
