<svg width="54" height="54" viewBox="0 0 54 54" fill="none" xmlns="http://www.w3.org/2000/svg">
<path d="M27 26.1044C28.2639 23.6145 31.7153 18.9765 34.9236 16.7307C37.9861 14.5338 39.1528 14.9243 39.9306 15.2661C40.8056 15.6567 41 17.0236 41 17.8536C41 18.6347 40.5139 24.4444 40.2708 25.4209C39.2986 28.6431 35.8958 29.7171 32.7847 29.3754C37.3542 30.0589 41 32.6464 35.9931 37.675C29.3819 43.4847 28.0694 36.3568 27 32.6464C25.8819 36.3568 23.6944 43.7776 17.8611 37.675C12.5139 31.7188 16.5972 30.0589 21.1667 29.3754C18.0556 29.7171 14.6528 28.6431 13.7292 25.4209C13.4375 24.4444 13 18.6347 13 17.8536C13 17.0236 13.1458 15.6567 14.0208 15.2661C14.7986 14.9243 15.9653 14.5338 19.0278 16.7307C22.2361 18.9765 25.6875 23.6145 27 26.1044Z" fill="black" style="fill:black;fill-opacity:1;"/>
</svg>
