<svg xmlns="http://www.w3.org/2000/svg" fill="none" viewBox="0 0 42 32">
  <path fill="#000" d="M32.979 6.09c3.706 5.47 5.558 11.61 4.885 18.699 0 0 0 .056-.056.056a26.621 26.621 0 0 1-8.254 4.13c-.056.056-.056 0-.112 0a27.545 27.545 0 0 1-1.685-2.735v-.111l.056-.056a15.587 15.587 0 0 0 2.583-1.228s.056 0 .056-.056 0-.056-.056-.112a3.065 3.065 0 0 1-.505-.39h-.112c-5.334 2.456-11.173 2.456-16.563 0h-.113a3.024 3.024 0 0 1-.505.39c-.056.056-.056.056-.056.112s0 .056.056.056c.786.502 1.684.893 2.583 1.228 0 0 0 .055.056.055v.112a27.564 27.564 0 0 1-1.684 2.735c-.057 0-.113.056-.113 0a26.62 26.62 0 0 1-8.253-4.13c-.056 0-.056-.056-.056-.056-.562-6.14.617-12.336 4.884-18.699h.056c2.134-1.005 4.38-1.674 6.682-2.065.056-.056.112 0 .112 0 .337.558.618 1.172.842 1.73a24.7 24.7 0 0 1 7.58 0 12.24 12.24 0 0 1 .842-1.73s.056-.056.112 0c2.302.39 4.548 1.06 6.682 2.065h.056ZM16.023 21.05c1.628 0 2.976-1.508 2.976-3.294 0-1.842-1.292-3.293-2.976-3.293-1.628 0-2.976 1.45-2.976 3.293 0 1.786 1.348 3.293 2.976 3.293Zm10.948 0c1.685 0 2.976-1.508 2.976-3.294.056-1.842-1.291-3.293-2.976-3.293-1.628 0-2.92 1.45-2.92 3.293 0 1.786 1.292 3.293 2.92 3.293Z"/>
</svg>
