<svg width="54" height="54" viewBox="0 0 54 54" fill="none" xmlns="http://www.w3.org/2000/svg">
<path d="M38.9789 17.0901C42.6845 22.5602 44.5374 28.7001 43.8636 35.7889C43.8636 35.7889 43.8636 35.8447 43.8075 35.8447C41.337 37.6867 38.5298 39.0821 35.554 39.9752C35.4979 40.031 35.4979 39.9752 35.4418 39.9752C34.8241 39.0821 34.2627 38.189 33.7574 37.2401C33.7574 37.1843 33.7574 37.1843 33.7574 37.1285L33.8135 37.0727C34.7119 36.7378 35.554 36.3471 36.3962 35.8447C36.3962 35.8447 36.4524 35.8447 36.4524 35.7889C36.4524 35.7331 36.4524 35.7331 36.3962 35.6773C36.2278 35.5656 36.0594 35.454 35.8909 35.2865C35.8348 35.2865 35.8348 35.2865 35.7786 35.2865C30.4448 37.7425 24.6056 37.7425 19.2156 35.2865C19.1595 35.2865 19.1033 35.2865 19.1033 35.2865C18.9349 35.454 18.7665 35.5656 18.598 35.6773C18.5419 35.7331 18.5419 35.7331 18.5419 35.7889C18.5419 35.8447 18.5419 35.8447 18.598 35.8447C19.3841 36.3471 20.2824 36.7378 21.1807 37.0727C21.1807 37.0727 21.1807 37.1285 21.2369 37.1285C21.2369 37.1843 21.2369 37.1843 21.2369 37.2401C20.7316 38.189 20.1701 39.0821 19.5525 39.9752C19.4964 39.9752 19.4402 40.031 19.4402 39.9752C16.4645 39.0821 13.6572 37.6867 11.1868 35.8447C11.1307 35.8447 11.1307 35.7889 11.1307 35.7889C10.5692 29.649 11.7483 23.4532 16.0153 17.0901C16.0153 17.0901 16.0153 17.0901 16.0715 17.0901C18.205 16.0853 20.4508 15.4155 22.7528 15.0248C22.809 14.969 22.8651 15.0248 22.8651 15.0248C23.202 15.583 23.4827 16.197 23.7073 16.7551C26.2339 16.3644 28.7604 16.3644 31.287 16.7551C31.5116 16.197 31.7923 15.583 32.1292 15.0248C32.1292 15.0248 32.1853 14.969 32.2414 15.0248C34.5434 15.4155 36.7892 16.0853 38.9228 17.0901C38.9789 17.0901 38.9789 17.0901 38.9789 17.0901ZM22.0229 32.0491C23.6512 32.0491 24.9986 30.542 24.9986 28.7559C24.9986 26.9139 23.7073 25.4627 22.0229 25.4627C20.3947 25.4627 19.0472 26.9139 19.0472 28.7559C19.0472 30.542 20.3947 32.0491 22.0229 32.0491ZM32.9713 32.0491C34.6557 32.0491 35.9471 30.542 35.9471 28.7559C36.0032 26.9139 34.6557 25.4627 32.9713 25.4627C31.3431 25.4627 30.0518 26.9139 30.0518 28.7559C30.0518 30.542 31.3431 32.0491 32.9713 32.0491Z" fill="black" style="fill:black;fill-opacity:1;"/>
</svg>
