<svg width="54" height="54" viewBox="0 0 54 54" fill="none" xmlns="http://www.w3.org/2000/svg">
<path d="M41 27.0274C41 34.2055 35.5859 40.1233 28.6953 41V31.3562H32.4688L33.2344 27.0274H28.6953V25.5479C28.6953 23.2466 29.5703 22.3699 31.8672 22.3699C32.5781 22.3699 33.125 22.4247 33.4531 22.4247V18.589C32.8516 18.3699 31.3203 18.2055 30.4453 18.2055C25.7422 18.2055 23.6094 20.4521 23.6094 25.2192V27.0274H20.7109V31.3562H23.6094V40.6712C17.4844 39.137 13 33.6027 13 27.0274C13 19.3014 19.2344 13 27 13C34.7109 13 41 19.3014 41 27.0274Z" fill="black" style="fill:black;fill-opacity:1;"/>
</svg>
