<svg width="54" height="54" viewBox="0 0 54 54" fill="none" xmlns="http://www.w3.org/2000/svg">
<path d="M26.7581 12C35.1653 12 42 18.3471 42 26.6104C42 33.2569 37.8871 38.9454 31.8387 40.9214C31.0524 41.101 30.75 40.622 30.75 40.2028C30.75 39.7238 30.8105 37.2089 30.8105 35.2329C30.8105 33.7958 30.3266 32.8976 29.7823 32.4186C33.1694 32.0593 36.7379 31.5803 36.7379 25.832C36.7379 24.1554 36.1331 23.3769 35.1653 22.2991C35.2863 21.88 35.8306 20.3231 34.9839 18.2274C33.7137 17.8082 30.8105 19.8441 30.8105 19.8441C29.6008 19.4848 28.3306 19.3651 27 19.3651C25.7298 19.3651 24.4597 19.4848 23.25 19.8441C23.25 19.8441 20.2863 17.8681 19.0766 18.2274C18.2298 20.3231 18.7137 21.88 18.8952 22.2991C17.9274 23.3769 17.4435 24.1554 17.4435 25.832C17.4435 31.5803 20.8911 32.0593 24.2782 32.4186C23.7944 32.8378 23.4315 33.4964 23.3105 34.4545C22.4032 34.8736 20.2258 35.5323 18.8952 33.197C18.0484 31.7599 16.5363 31.6402 16.5363 31.6402C15.0847 31.6402 16.4758 32.5982 16.4758 32.5982C17.4435 33.0174 18.1089 34.7539 18.1089 34.7539C19.0161 37.4484 23.25 36.5502 23.25 36.5502C23.25 37.8077 23.25 39.8435 23.25 40.2627C23.25 40.622 23.0081 41.101 22.2218 40.9812C16.1734 38.9454 12 33.2569 12 26.6104C12 18.3471 18.4113 12 26.7581 12Z" fill="black" style="fill:black;fill-opacity:1;"/>
</svg>
