<svg xmlns="http://www.w3.org/2000/svg" fill="none" viewBox="0 0 42 32">
  <path fill="#000" d="M20.758 1C29.165 1 36 7.347 36 15.61c0 6.647-4.113 12.335-10.161 14.311-.787.18-1.089-.299-1.089-.718 0-.48.06-2.994.06-4.97 0-1.437-.483-2.335-1.028-2.814 3.387-.36 6.956-.839 6.956-6.587 0-1.677-.605-2.455-1.573-3.533.121-.419.666-1.976-.181-4.072-1.27-.419-4.174 1.617-4.174 1.617-1.21-.36-2.48-.479-3.81-.479-1.27 0-2.54.12-3.75.48 0 0-2.964-1.977-4.173-1.618-.847 2.096-.363 3.653-.182 4.072-.968 1.078-1.451 1.856-1.451 3.533 0 5.748 3.447 6.227 6.834 6.587-.484.419-.846 1.077-.967 2.035-.908.42-3.085 1.078-4.416-1.257-.847-1.437-2.359-1.557-2.359-1.557-1.451 0-.06.958-.06.958.967.42 1.633 2.156 1.633 2.156.907 2.694 5.141 1.796 5.141 1.796v3.713c0 .359-.242.838-1.028.718C10.173 27.945 6 22.257 6 15.611 6 7.346 12.411 1 20.758 1Z"/>
</svg>
