<svg width="54" height="54" viewBox="0 0 54 54" fill="none" xmlns="http://www.w3.org/2000/svg">
<path d="M27.0312 19.8125C30.9688 19.8125 34.2188 23.0625 34.2188 27C34.2188 31 30.9688 34.1875 27.0312 34.1875C23.0312 34.1875 19.8438 31 19.8438 27C19.8438 23.0625 23.0312 19.8125 27.0312 19.8125ZM27.0312 31.6875C29.5938 31.6875 31.6562 29.625 31.6562 27C31.6562 24.4375 29.5938 22.375 27.0312 22.375C24.4062 22.375 22.3438 24.4375 22.3438 27C22.3438 29.625 24.4688 31.6875 27.0312 31.6875ZM36.1562 19.5625C36.1562 18.625 35.4062 17.875 34.4688 17.875C33.5312 17.875 32.7812 18.625 32.7812 19.5625C32.7812 20.5 33.5312 21.25 34.4688 21.25C35.4062 21.25 36.1562 20.5 36.1562 19.5625ZM40.9062 21.25C41.0312 23.5625 41.0312 30.5 40.9062 32.8125C40.7812 35.0625 40.2812 37 38.6562 38.6875C37.0312 40.3125 35.0312 40.8125 32.7812 40.9375C30.4688 41.0625 23.5312 41.0625 21.2188 40.9375C18.9688 40.8125 17.0312 40.3125 15.3438 38.6875C13.7188 37 13.2188 35.0625 13.0938 32.8125C12.9688 30.5 12.9688 23.5625 13.0938 21.25C13.2188 19 13.7188 17 15.3438 15.375C17.0312 13.75 18.9688 13.25 21.2188 13.125C23.5312 13 30.4688 13 32.7812 13.125C35.0312 13.25 37.0312 13.75 38.6562 15.375C40.2812 17 40.7812 19 40.9062 21.25ZM37.9062 35.25C38.6562 33.4375 38.4688 29.0625 38.4688 27C38.4688 25 38.6562 20.625 37.9062 18.75C37.4062 17.5625 36.4688 16.5625 35.2812 16.125C33.4062 15.375 29.0312 15.5625 27.0312 15.5625C24.9688 15.5625 20.5938 15.375 18.7812 16.125C17.5312 16.625 16.5938 17.5625 16.0938 18.75C15.3438 20.625 15.5312 25 15.5312 27C15.5312 29.0625 15.3438 33.4375 16.0938 35.25C16.5938 36.5 17.5312 37.4375 18.7812 37.9375C20.5938 38.6875 24.9688 38.5 27.0312 38.5C29.0312 38.5 33.4062 38.6875 35.2812 37.9375C36.4688 37.4375 37.4688 36.5 37.9062 35.25Z" fill="black" style="fill:black;fill-opacity:1;"/>
</svg>
