<svg xmlns="http://www.w3.org/2000/svg" fill="none" viewBox="0 0 42 32">
  <path fill="#000" d="M34 11.212s0 4.438-.56 7.563c-.435 2-3.482 4.125-6.965 4.563-1.244.125-5.783.875-11.07-.438v.875c.436 3.126 3.11 3.313 5.598 3.376 2.55.125 4.788-.625 4.788-.625l.125 2.312s-1.804.938-4.913 1.125c-1.742.125-3.918-.062-6.468-.687C7.57 27.4 8.005 18.4 8.005 11.212c0-6.126 3.918-7.876 3.918-7.876 3.856-1.75 14.18-1.812 18.097 0 0 0 3.98 1.75 3.98 7.876Zm-4.726 7.813c0-7.626.373-9.25-1.12-10.938-1.617-1.813-4.975-1.938-6.467.375l-.684 1.187-.747-1.187c-1.492-2.313-4.85-2.188-6.467-.375-1.493 1.687-1.12 3.312-1.12 10.938h2.861v-7.126c0-3.125 3.98-3.25 3.98.375v3.938h2.923v-3.875c0-3.688 3.98-3.563 3.98-.438v7.126h2.86Z"/>
</svg>
