<svg width="54" height="54" viewBox="0 0 54 54" fill="none" xmlns="http://www.w3.org/2000/svg">
<path d="M40 22.2118C40 22.2118 40 26.6497 39.4403 29.775C39.005 31.7752 35.9578 33.9003 32.4752 34.3379C31.2315 34.4629 26.6917 35.2129 21.4058 33.9003C21.4058 34.2129 21.4058 34.5254 21.4058 34.7754C21.8411 37.9007 24.5152 38.0882 27.0027 38.1507C29.5524 38.2757 31.7912 37.5256 31.7912 37.5256L31.9155 39.8383C31.9155 39.8383 30.1121 40.7759 27.0027 40.9634C25.2614 41.0885 23.0848 40.9009 20.5351 40.2759C13.5701 38.4007 14.0054 29.3999 14.0054 22.2118C14.0054 16.0863 17.9232 14.3362 17.9232 14.3362C21.7789 12.586 32.1021 12.5235 36.02 14.3362C36.02 14.3362 40 16.0863 40 22.2118ZM35.2737 30.025C35.2737 22.3993 35.6468 20.7742 34.1543 19.0866C32.5374 17.2739 29.1793 17.1489 27.6868 19.4616L27.0027 20.6492L26.2564 19.4616C24.7639 17.1489 21.4058 17.2739 19.7889 19.0866C18.2964 20.7742 18.6695 22.3993 18.6695 30.025H21.5301V22.8994C21.5301 19.7741 25.5102 19.6491 25.5102 23.2744V27.2123H28.433V23.3369C28.433 19.6491 32.4131 19.7741 32.4131 22.8994V30.025H35.2737Z" fill="black" style="fill:black;fill-opacity:1;"/>
</svg>
