<svg width="54" height="54" viewBox="0 0 54 54" fill="none" xmlns="http://www.w3.org/2000/svg">
<path d="M27.9964 24.5487C27.9964 21.0518 29.4811 17.9482 31.7642 15.9988C31.9517 15.8388 31.8368 15.5129 31.5905 15.5218C28.3811 15.6384 25.7993 15.9273 24.383 16.1865C22.1483 16.5947 18.9981 17.3996 16.7204 19.6862C16.648 19.759 16.5383 19.7828 16.4445 19.7411C14.5481 18.8963 13.9587 17.3567 14.5823 14.9451C14.6174 14.8064 14.6127 14.6605 14.5689 14.5244C14.5251 14.3882 14.4439 14.2674 14.3347 14.1757C14.2255 14.0841 14.0927 14.0255 13.9518 14.0066C13.8109 13.9878 13.6676 14.0094 13.5384 14.0692C11.092 15.2215 10 16.3225 10 19.796C10 21.609 11.8204 23.4854 14.3456 24.371C14.4521 24.4083 14.5228 24.5107 14.517 24.6234C14.4755 25.4297 14.4368 26.2234 14.4368 26.9108C14.4368 28.5509 14.9108 29.4857 15.3293 30.3118C15.7043 31.0503 16.0268 31.6891 16.0268 32.8611C16.0268 33.1798 15.7448 33.8911 15.4733 34.5782C14.9798 35.8227 14.3663 37.3767 14.3663 38.9141C14.3663 39.2237 14.5553 39.5046 14.8433 39.6164C15.3638 39.8248 16.5308 40 17.6617 40C18.7237 40 19.7542 39.8429 20.1921 39.4019C20.2641 39.3297 20.3207 39.2434 20.3584 39.1484C20.396 39.0533 20.414 38.9515 20.4111 38.8492C20.3604 36.7856 21.0637 34.9019 21.4912 33.9521C21.5373 33.8496 21.6473 33.7926 21.7583 33.8102C22.6912 33.9576 24.3625 34.1342 26.1689 33.9103C26.3203 33.8915 26.4559 34.0083 26.4559 34.1609V38.9383C26.4559 39.1386 26.5349 39.3306 26.6756 39.4723C26.8162 39.6139 27.007 39.6934 27.2059 39.6934H31.7057C31.9046 39.6934 32.0954 39.6139 32.236 39.4723C32.3767 39.3306 32.4557 39.1386 32.4557 38.9383V33.7825C32.4557 33.701 32.4159 33.6248 32.3498 33.5771C29.7271 31.683 27.9964 28.3504 27.9964 24.5487Z" fill="black" style="fill:black;fill-opacity:1;"/>
<path d="M39.009 24.5894C38.871 24.5895 38.7597 24.7015 38.7537 24.8394C38.6491 27.2502 37.0388 29.1912 35.0318 29.1912C32.9514 29.1912 31.2819 27.1388 31.2819 24.6137C31.2819 22.0886 32.9844 20.0376 35.0633 20.0376C36.6413 20.0376 37.994 21.2287 38.5546 22.9054C38.5897 23.0106 38.6867 23.0838 38.7976 23.0838H41.322C41.4721 23.0838 41.5886 22.952 41.5667 22.8034C41.0162 19.0702 38.745 16.1535 35.8966 15.5808C35.8616 15.5737 35.8252 15.5747 35.7906 15.5835C32.256 16.4768 29.5975 20.1546 29.5975 24.5487C29.5975 28.8433 32.1416 32.4552 35.5585 33.4471C35.6317 33.4684 35.6332 33.5755 35.5598 33.5966C35.1434 33.6868 34.7215 33.7484 34.297 33.7808C34.1642 33.791 34.0599 33.9004 34.0599 34.0335V37.4266C34.0599 37.6268 34.1389 37.8189 34.2795 37.9605C34.4202 38.1021 34.6109 38.1817 34.8098 38.1817H38.9797C39.2047 38.1817 39.4192 38.0805 39.5617 37.9023C39.6321 37.816 39.6826 37.7149 39.7093 37.6065C39.736 37.4981 39.7384 37.385 39.7162 37.2755L38.7047 32.2234C38.6874 32.1366 38.7173 32.0475 38.782 31.9871C40.4896 30.396 41.6251 27.7937 41.6971 24.8392C41.7004 24.7007 41.588 24.5881 41.4495 24.5881L39.009 24.5894Z" fill="black" style="fill:black;fill-opacity:1;"/>
<path d="M35.7593 23.0793H36.6462C36.8261 23.0793 36.9461 22.895 36.8568 22.739C36.4427 22.0158 35.8018 21.5449 35.0723 21.5449C33.8198 21.5449 32.8014 22.9192 32.8014 24.6107C32.8014 26.3021 33.7763 27.6764 35.0288 27.6764C36.219 27.6764 37.1585 26.4122 37.2491 24.8351C37.257 24.6972 37.1443 24.585 37.0062 24.585H35.7563C35.5574 24.585 35.3666 24.5054 35.226 24.3638C35.0853 24.2222 35.0063 24.0301 35.0063 23.8299C35.0087 23.6302 35.089 23.4396 35.2299 23.2991C35.3708 23.1586 35.561 23.0797 35.7593 23.0793ZM45.3329 24.3943C45.2413 24.3089 45.2319 24.1696 45.2715 24.0509C45.2945 23.9819 45.3074 23.9095 45.3095 23.8359C45.3082 23.7727 45.2988 23.7103 45.2817 23.6502C45.2493 23.5368 45.2606 23.4074 45.3455 23.3255L45.7669 22.9192C45.9108 22.7806 45.994 22.5902 45.9984 22.3898C46.0027 22.1894 45.9278 21.9955 45.7902 21.8507C45.6526 21.7059 45.4634 21.6221 45.2644 21.6177C45.0654 21.6133 44.8728 21.6887 44.729 21.8273L43.5072 23.0104C43.4606 23.0555 43.3982 23.0808 43.3333 23.0808H42.5383C42.4022 23.0808 42.2911 23.1897 42.2884 23.3258L42.2683 24.3361C42.2655 24.476 42.3783 24.591 42.5183 24.591H43.2443C43.3077 24.591 43.3688 24.6151 43.4151 24.6585L44.741 25.8989C44.8126 25.9672 44.8971 26.0204 44.9894 26.0554C45.0817 26.0905 45.1801 26.1066 45.2786 26.103C45.3772 26.0993 45.4741 26.0759 45.5636 26.0341C45.6531 25.9923 45.7335 25.933 45.7999 25.8596C45.935 25.7129 46.0068 25.5183 45.9995 25.3184C45.9922 25.1185 45.9064 24.9297 45.7609 24.7934L45.3329 24.3943ZM22.2106 35.1612C22.0725 35.1612 21.9606 35.2731 21.9606 35.4112V37.5217C21.9606 37.7301 22.0446 37.8781 22.1931 38.0231C22.3326 38.156 22.5186 38.1817 22.7105 38.1817H22.7465L24.7202 38.1049C24.8544 38.0997 24.9605 37.9894 24.9605 37.8551V35.4112C24.9605 35.2731 24.8485 35.1612 24.7105 35.1612H22.2106Z" fill="black" style="fill:black;fill-opacity:1;"/>
</svg>
