<svg width="54" height="54" viewBox="0 0 54 54" fill="none" xmlns="http://www.w3.org/2000/svg">
<path fill-rule="evenodd" clip-rule="evenodd" d="M42 27C42 18.7742 35.2258 12 27 12C18.7137 12 12 18.7742 12 27C12 35.2863 18.7137 42 27 42C35.2258 42 42 35.2863 42 27ZM35.0537 21.5447C35.1219 21.3364 35.1219 21.1282 35.0537 20.8505C35.0537 20.7117 34.9174 20.5035 34.8493 20.434C34.6448 20.2258 34.3041 20.2258 34.1678 20.2258C33.5544 20.2258 32.5322 20.5729 27.8298 22.5859C26.1942 23.2801 22.923 24.6684 18.0163 26.8896C17.1985 27.2367 16.7896 27.5143 16.7214 27.8614C16.6618 28.3474 17.333 28.5676 18.1867 28.8476C18.3085 28.8876 18.4339 28.9287 18.5615 28.972C19.4474 29.2497 20.606 29.5968 21.2193 29.5968C21.7645 29.5968 22.3779 29.3885 23.0594 28.9026C27.6254 25.7096 30.0106 24.113 30.1469 24.113C30.1952 24.113 30.2435 24.1043 30.2888 24.0961C30.3713 24.0813 30.4437 24.0682 30.4877 24.113C30.624 24.2519 30.624 24.3907 30.5558 24.4601C30.5013 24.7379 27.7407 27.3718 26.5004 28.5551C26.1909 28.8505 25.9761 29.0554 25.9217 29.1109C25.7961 29.2387 25.6682 29.3606 25.5447 29.4783C24.729 30.2555 24.1013 30.8535 25.5809 31.818C26.1369 32.1956 26.6003 32.5207 27.047 32.8342C27.7503 33.3276 28.4123 33.7921 29.3291 34.3864C29.5449 34.5277 29.7502 34.676 29.9498 34.8203C30.6327 35.3139 31.2486 35.759 31.987 35.7053C32.464 35.6359 32.9411 35.2194 33.1455 33.9005C33.7589 30.9157 34.8493 24.2519 35.0537 21.5447Z" fill="black" style="fill:black;fill-opacity:1;"/>
</svg>
