<svg xmlns="http://www.w3.org/2000/svg" fill="none" viewBox="0 0 42 32">
  <path fill="#000" fill-rule="evenodd" d="M36 16c0-8.226-6.774-15-15-15C12.714 1 6 7.774 6 16c0 8.286 6.714 15 15 15 8.226 0 15-6.714 15-15Zm-6.946-5.455c.068-.209.068-.417 0-.694 0-.14-.137-.348-.205-.417-.204-.208-.545-.208-.681-.208-.614 0-1.636.347-6.338 2.36a418.634 418.634 0 0 0-9.814 4.304c-.818.347-1.226.624-1.295.971-.06.486.612.707 1.466.987.122.04.247.08.375.124.885.278 2.044.625 2.657.625.546 0 1.159-.209 1.84-.694 4.566-3.193 6.952-4.79 7.088-4.79a.803.803 0 0 0 .142-.017c.082-.015.155-.028.199.017.136.139.136.278.068.347-.055.278-2.815 2.912-4.056 4.095-.31.296-.524.5-.578.556-.126.128-.254.25-.377.367-.816.777-1.444 1.375.036 2.34.556.378 1.02.703 1.466 1.016.703.494 1.365.958 2.282 1.552.216.142.421.29.62.434.684.494 1.3.939 2.038.885.477-.07.954-.486 1.159-1.804.613-2.985 1.703-9.65 1.908-12.356Z" clip-rule="evenodd"/>
</svg>
