<svg xmlns="http://www.w3.org/2000/svg" fill="none" viewBox="0 0 42 32">
  <path fill="#000" d="M34.744 9.453v.877c0 8.709-6.576 18.67-18.662 18.67C12.325 29 8.881 27.935 6 26.055c.501.063 1.002.126 1.566.126 3.068 0 5.886-1.065 8.14-2.82-2.88-.062-5.322-1.942-6.137-4.573.439.063.815.125 1.253.125.564 0 1.19-.125 1.69-.25-3.005-.627-5.26-3.258-5.26-6.453v-.063c.877.501 1.942.752 3.006.814a6.473 6.473 0 0 1-2.943-5.45c0-1.253.313-2.38.877-3.32a19.074 19.074 0 0 0 13.589 6.89 6.184 6.184 0 0 1-.188-1.503A6.576 6.576 0 0 1 28.168 3c1.879 0 3.57.752 4.822 2.067 1.44-.313 2.88-.877 4.133-1.628a6.422 6.422 0 0 1-2.88 3.633A12.32 12.32 0 0 0 38 6.07c-.877 1.316-2.004 2.443-3.256 3.383Z"/>
</svg>
