<svg width="54" height="54" viewBox="0 0 54 54" fill="none" xmlns="http://www.w3.org/2000/svg">
<path d="M40.7436 20.453C40.7436 20.7663 40.7436 21.0169 40.7436 21.3301C40.7436 30.0386 34.1683 40 22.0822 40C18.3249 40 14.8806 38.9349 12 37.0554C12.501 37.1181 13.002 37.1807 13.5656 37.1807C16.6341 37.1807 19.4521 36.1157 21.7065 34.3614C18.8258 34.2988 16.3836 32.4193 15.5695 29.788C16.0078 29.8506 16.3836 29.9133 16.8219 29.9133C17.3855 29.9133 18.0117 29.788 18.5127 29.6627C15.5068 29.0361 13.2524 26.4048 13.2524 23.2096V23.147C14.1292 23.6482 15.1937 23.8988 16.2583 23.9614C14.4423 22.7711 13.3151 20.7663 13.3151 18.5108C13.3151 17.2578 13.6282 16.1301 14.1918 15.1904C17.4481 19.1373 22.3327 21.7687 27.7808 22.0819C27.6556 21.5807 27.593 21.0795 27.593 20.5783C27.593 16.9446 30.5362 14 34.1683 14C36.047 14 37.7378 14.7518 38.9902 16.0675C40.4305 15.7542 41.8708 15.1904 43.1233 14.4386C42.6223 16.0048 41.6204 17.2578 40.2427 18.0723C41.5577 17.947 42.8728 17.5711 44 17.0699C43.1233 18.3855 41.9961 19.5133 40.7436 20.453Z" fill="black" style="fill:black;fill-opacity:1;"/>
</svg>
