<svg xmlns="http://www.w3.org/2000/svg" fill="none" viewBox="0 0 100 100">
  <g clip-path="url(#a)">
    <path fill="color(display-p3 .5922 .251 .3608)" d="M21.3 50.5 50 58.1l28.8-7.6 21-5.5A49.9 49.9 0 0 0 78 8.5l-6 15.3-8.6-9.4-5.2 9.3-8.3 15-11.3-20.3-2.2-4-8.6 9.3L22 8.6A50.2 50.2 0 0 0 .2 45l21 5.5Z"/>
    <path fill="color(display-p3 .9804 .8471 .498)" d="M28.8 34.4a8.1 8.1 0 1 1-16.3 0 8.1 8.1 0 0 1 16.3 0Zm58.7 0a8.1 8.1 0 1 1-16.3 0 8.1 8.1 0 0 1 16.3 0Z"/>
    <path fill="color(display-p3 .2824 .1294 .3569)" d="M.2 45 0 50a50 50 0 0 0 23.6 42.5l-2.4-42L.3 45Zm99.8 5c0-1.7 0-3.4-.2-5l-21 5.5-2.4 42A50 50 0 0 0 100 50Z"/>
    <path fill="color(display-p3 .9176 .2667 .2824)" d="M58.1 99.3c4-.6 7.7-1.7 11.3-3.2L68 79.4 57 83l1 16.3Z"/>
    <path fill="color(display-p3 .9059 .7451 .6353)" d="M23.6 92.5a49.8 49.8 0 0 0 34.5 6.8L57 83.1l11-3.7L69.4 96c2.4-1 4.7-2.2 7-3.6l2.3-42L50 58.1l-28.8-7.6 2.4 42Z"/>
    <path fill="color(display-p3 .2824 .1294 .3569)" fill-rule="evenodd" d="M33.8 2.7A50 50 0 0 1 78 8.5l-6 15.3-8.6-9.4-5.2 9.3-19.5-5.3-2.3-4-8.6 9.3L22 8.6c3.6-2.4 7.6-4.4 11.8-5.8Z" clip-rule="evenodd"/>
    <path fill="color(display-p3 .9176 .2667 .2824)" d="M38.8 18.4 50 38.8l8.3-15-19.5-5.4Z"/>
  </g>
  <defs>
    <clipPath id="a">
      <path fill="#fff" d="M0 0h100v100H0z"/>
    </clipPath>
  </defs>
</svg>
