<svg xmlns="http://www.w3.org/2000/svg" fill="none" viewBox="0 0 512 512"><path fill="#97405C" d="M0 205C0 133 0 97 14 70c12-24 32-44 56-56C97 0 133 0 205 0h102c72 0 108 0 135 14 24 12 44 32 56 56 14 27 14 63 14 135v102c0 72 0 108-14 135-12 24-32 44-56 56-27 14-63 14-135 14H205c-72 0-108 0-135-14-24-12-44-32-56-56C0 415 0 379 0 307V205Z"/><path fill="#E7BEA2" d="M256 256c93 0 181 25 256 68 0 61-1 93-14 118-12 24-32 44-56 56-27 14-63 14-135 14H205c-72 0-108 0-135-14-24-12-44-32-56-56C1 417 0 385 0 324c75-43 163-68 256-68Z"/><path fill="#48215B" d="M104 311c6 2 6 10 0 13l-63 33c-5 3-5 10 0 13l63 33c6 3 6 11 0 13l-80 43-10-17C0 415 0 379 0 307v-51l104 55ZM512 307c0 72 0 108-14 135l-10 17-80-43c-6-2-6-10 0-13l63-33c5-3 5-10 0-13l-63-33c-6-3-6-11 0-13l104-55v51ZM307 0c57 0 92 0 117 7l-57 112c-2 5-10 5-13 0l-27-53c-3-6-12-6-14 0l-23 65c-2 6-11 7-13 1l-14-28c-3-5-11-5-14 0l-14 28c-2 6-11 5-13-1l-23-65c-2-6-11-6-14 0l-27 53c-3 5-11 5-13 0L88 7c25-7 60-7 117-7h102Z"/><path fill="#FAD87F" d="M84 195c0-22 18-40 40-40h40a40 40 0 0 1 0 80h-40c-22 0-40-18-40-40ZM308 195c0-22 18-40 40-40h40a40 40 0 0 1 0 80h-40c-22 0-40-18-40-40Z"/><path fill="#EA4448" d="M326 399c2-2 4 1 4 1l1-1 1 2 1-1 2 1h1v-1l1 1 3-2c0 1-1 2 1 3 3-4 3 0 4 0l3-2c1 1 2 3 5 1l2 1c2-1 0-2 2-2l-1 1c2 2 10-1 9 2h1l1 8c2 1 5 3 5 5l-1 2h-2s0 3 1 2v-1c2-2 2 6 3 6l1-1v2h-1v1l-1 1h1v2l2 6c-2-2-2 0-2 1 0 0 3-1 3 1 0 1-5 1-2 3 2-2 3-1 3 0v3l2 1v1l1 4c-4 0-1 2-2 2h-2l1 2c1-1 4 1 3 1l1 2-2 3h2l-1 1h1c0 1-3 0-1 2 3-2 2 2 2 2h1c-1 1 0 0 0 0l-1 2c1 1 3 0 2 1a239 239 0 0 1 1 0c-3 0 0 0 0 1h-1 2l-1 1h1-1s-3 2-2 0l-2 2h5c-3 2-3 1-4 0l-1 2 5-2h1c1 1-1 1-1 1l-1 1 2-1-1 1c5-2-2 2-3 2l3-1c2-1 1 1 2 1-3 1-1-1-1-1-2 0-1 2-5 3l3-1c-2 1-3 1-1 2v-1h2l1-1-1 1-2 2c1 0 5-4 5-2h-1l-4 2s2 1 1 2c2-1 1 1 2 1l1-1v2h1-1l1 1h1v1l3-3c-2 2 0 1 0 1l-1 2h-1v1l-1 1s3-2 1-2h2s-6 4-1 2l1-1v1l1-1-2 1-1 2c3-2 1-1 2 0l2-2h1l-1 2s1-2 1 0l-1-1c-2 2 1 1 1 1h1c-2 3 0 1 0 1l1 1-1 1 1-2v2l-1 2h1v1l1-1v-2s-1 2 0 0l3 4c-1 1-1-1-2-2l-1 1 2 2-1 1 1-1-1 3 2-3s0 3 1 2v-3c1-1 1 1 2 1l1-1v3l-1 1v-2l-1 1s1-3 0 0v1l3 2v-1c0 1 2-1 0 2l7 3c-25 5-57 5-107 5h-8c1-2-1-1-2 0h-5v-1c1 2 2 1 2-1h1v-4l-1 1-1-2-2 1 1-2h-1v-1l-2-2c-1 4-1 1-2 0 0 0-2 1-2-1 5 2 2-1 2-2l1-1h-1c-2-3 0-1 0-2l-1-2s1 0 0 0l-1-2 1-1h-2c-1 2 2 3 1 5l-2-2 1-1s-3-1-2-2l2-1h1l6-3h-1s1-2-1-2v1c0-2-1-1-1-1l1-1-1-1-1-1c2 1 0 1 0 1-1 0 0 0 0 0l1 1c0 2-2 0-3 1h1l-1 1 2-1c1 0 0 2-2 2h1c-1 2-1 0-2 0l-1-3h-2c0-1 4-3-2-1l4-3h-3v-1h-2l1-1h-2v-4h1l1-1c-4 1-1-1-1-1h-1l-1-2c-1-1-3 3-3 3s-2-3-3-1h1c1 1-1 1-1 1h1l-1 1c-2 0-1-2-1-2-1 0-3 1-1-2l-1 1-1-3 2-1-2 1-2-8-2-2v-3h-1 1c0-1-2-4-1-5-1 1 2 3 3 2h1c0-1-3-1-2-2l2-1s-2 0 0-1l-2-7-2 1 3-2-2-2c-2 0-2 2-2 2l-1-1s3 0 1-1v1c-1-1 0-1 1-2 0 0-3 0 0-2h2c1-1-2 0 0-1l2-1h-1l-1-2c0-1 2 0 1-1-2 1-3-1-1-1-2 0-1-2-1-3l-1-2 2-1s-2-1 0-2l4-1c1 0-1 2 1 1v-2c1-2 3-1 3-1l2-2h2l3-2v2c1 1 3-1 4-2h1-3 2l1-1h5l-1-1h2l3-1v-1c2 2 3 0 3 0 1-1 3 0 2-1h2c1 0 2-1 1 1l2-2h1c3-3 2-1 4-2l1-1c1 2-1 3 4 2 2-2-2-2-2-3h1v-1c4-1 1 3 2 3l1-1 1 1c1-2 0 0 3-1h2v-1l4 1c1-2-4 0-2-2l-1 1-3-1h-2l1-1h3c0-1 3-3 3-1-2-1-2 0-1 1h1l1 1c0 1 2-1 1 1 2-2 0-3 1-4Zm-28 111v1-1Zm-1-1-1 1 1-1Zm107-7-1 1 1-1Zm-2-1c-1 0-1 2 0 0 0 0 0-1 0 0Zm-110-1v2-2Zm-1 1-1-1c-1 1 0 2 1 1Zm112-3c-1 2 1 4 1 2l-1-2Zm-110 1-1-1s0 2 1 1Zm-2-1h-2 2Zm107-1h-1 1Zm-4-2-1 1 1-1Zm-1 1-1 1 1-1Zm2-1-1 1 1-1Zm-105 1c1-1 0-1-1-1l1 1Zm102-2h-1 1Zm-102-1v1-1Zm3-6c-4 2-1 1-1 1l-1 2-1-2v5-1l3-2v-3Zm96 3h-1 1Zm-3-2h-1 1Zm-4-3 1-1-1 1Zm1-3h-1 1Zm-1-1c-1 0-1 1 0 0Zm1-2-3 1 3-1Zm1-2-1-1 1 1Zm-103-1c1 0 0-3-1-1 0 0 0 2 1 1Zm3 0c1-1-1-2-1-1l1 1Zm-5-2v2-2Zm9-1v-2 2Zm-8 0h-1 1Zm6-2c3-2 0 0-1 0h1Zm-2-2-1 1c1 1 2-1 1-1Zm-14-1h-1v2c2 0 0-1 0-1s5 0 1-1Zm18 2h-2 2Zm-5-2-1 1c1 0 2 0 1-1Zm-14 0s-3 1-1 1l1-1Zm19 0s-1-2-2-1l1 1h-1 2Zm-19 0c2-1-3-1-2-1l2 1Zm-2-5c1 0 0 0 0 0-1 0 0 1 0 0Zm-3-7c1 1 0 3 1 2l-1-2Zm0-3c2 0 1-1 0-1v1Zm115-4v1-1Zm-1-2v1-1Zm-4-9v-1 1Zm-1-8c-2 0-2 2-1 1l1-1Zm-108 1c0-1 0-2-1-1l1 1Zm1-2v2-2Zm2-1v2-2Zm-2 0h-1 1Zm0-2c2-1 0-2-1-1l1 1Zm5-5-1 1 1-1Zm32-13-3 1h2l1-1ZM290 510v2-2Z"/><path fill="#EA4448" d="M290 505v3c-1 0-2-3 0-3ZM417 506h1a191 191 0 0 1-1 0ZM406 501l1-3-1 1 1 1 1-1v1l1-1v1c1 1 3 0 4 3h-3c1-3-2 1 0-1l-4-1ZM285 496c-1 1-2-1 0-1v1ZM402 495c0-1 0 0 0 0 0 1 0 0 0 0ZM402 491h1-1ZM399 490h1c-1 2-1 0-1 0ZM398 490ZM398 490h-1 1ZM401 489h1c-1 2-1 1-1 0ZM399 489h-1v1h1l-1-1s1-1-1-2h1l1 2Z"/><path fill="#EA4448" d="M398 489h1l-1 1v-1ZM396 489l1 1-1-1ZM276 488l1 1c-1 1-1 0-1-1ZM277 488l1 1c-1 1-1 0-1-1ZM396 489v-1 1ZM395 487v1-1ZM396 488ZM396 488h-1 1ZM396 487l-1 1 1-1ZM397 487s0 1 0 0v1l-1-1h1ZM395 488ZM397 487ZM397 486l1 1-1-1v1-1ZM288 485l1 1c-1 1-2 0-1-1ZM279 482c2-1 1 1 1 1h1l-1 1v1l-1-1v-2ZM389 481l2-1v2h1l-1 1v-1l-2 1 1-1c-1 0-2 0-1-1ZM277 482h1-1Z"/><path fill="#EA4448" d="m390 478-1 1h2l-1 1-2 1 2-2-2 1-1 1s2 0 1 1l-2-1 2-2h-1 1c-1 1-1 0 0 0 0-1 0 0 0 0l2-1ZM275 479v1h-2 2l-2 1v1-2h-2 3c0-1-2-1 1-1ZM273 475c2 0 1 1 1 1l-1-1ZM270 475h2-2ZM270 474s4-2 2 0h-2v1l-1-1h1ZM273 472c1 0 2 1 0 2v-2ZM274 471c-1-1 2-1 1-1l-1 1ZM265 451h-1 1ZM260 446h3-3ZM261 444c1-1 1 0 0 0 0 1 0 0 0 0ZM260 440c-1 1-1-1 0 0ZM260 433v1-1ZM255 433c-2 0-1-2 0-1v1ZM259 433l-1-1c-1-1-6-1-1-1l2 2ZM374 427c2 0 0 2 0 2v-2ZM309 404l1 1h1c-1 1-3-1-2-1ZM324 401h1-1ZM335 400v1-1ZM352 399c-1 0 5-4 4-1h-1c-1 2 1 1 1 1 1 0-2 1 0 1l-2 1c-4 1 1-2 0-3l-2 1ZM335 398v2c-1-1-2-1 0-2ZM335 398l2-1v1l-1 2-1-2ZM347 399c1-1 1 0 1 1l-1-1ZM357 399h1-1ZM324 399c0-1 0 0 0 0-1 1-2 0 0 0ZM327 398c0 1-1 0 0 0ZM335 396v2h-1l1-2ZM337 397ZM338 396l1 1-1-1ZM337 396h1-1v1l-1-1h1ZM368 394c-1 1-1 0 0 0Z"/></svg>